<svg xmlns="http://www.w3.org/2000/svg" xmlns:xlink="http://www.w3.org/1999/xlink" width="93.98mm" height="55.88mm" viewBox="4037.6 3037.6 370 220"><title></title><style type="text/css">
*[layerid="1"] {stroke:#000000;fill:#000000;}
*[layerid="2"] {stroke:#000000;fill:#000000;}
*[layerid="3"] {stroke:#000000;fill:#000000;}
*[layerid="4"] {stroke:#000000;fill:#000000;}
*[layerid="5"] {stroke:#000000;fill:#000000;}
*[layerid="6"] {stroke:#000000;fill:#000000;}
*[layerid="7"] {stroke:#000000;fill:#000000;}
*[layerid="8"] {stroke:#000000;fill:#000000;}
*[layerid="9"] {stroke:#000000;fill:#000000;}
*[layerid="10"] {stroke:#000000;fill:#000000;}
*[layerid="11"] {stroke:#000000;fill:#000000;}
*[layerid="12"] {stroke:#000000;fill:#000000;}
*[layerid="13"] {stroke:#000000;fill:#000000;}
*[layerid="14"] {stroke:#000000;fill:#000000;}
*[layerid="15"] {stroke:#000000;fill:#000000;}
*[layerid="19"] {stroke:#000000;fill:#000000;}
*[layerid="21"] {stroke:#000000;fill:#000000;}
*[layerid="22"] {stroke:#000000;fill:#000000;}
*[layerid="23"] {stroke:#000000;fill:#000000;}
*[layerid="24"] {stroke:#000000;fill:#000000;}
*[layerid="25"] {stroke:#000000;fill:#000000;}
*[layerid="26"] {stroke:#000000;fill:#000000;}
*[layerid="27"] {stroke:#000000;fill:#000000;}
*[layerid="28"] {stroke:#000000;fill:#000000;}
*[layerid="29"] {stroke:#000000;fill:#000000;}
*[layerid="30"] {stroke:#000000;fill:#000000;}
*[layerid="31"] {stroke:#000000;fill:#000000;}
*[layerid="32"] {stroke:#000000;fill:#000000;}
*[layerid="33"] {stroke:#000000;fill:#000000;}
*[layerid="34"] {stroke:#000000;fill:#000000;}
*[layerid="35"] {stroke:#000000;fill:#000000;}
*[layerid="36"] {stroke:#000000;fill:#000000;}
*[layerid="37"] {stroke:#000000;fill:#000000;}
*[layerid="38"] {stroke:#000000;fill:#000000;}
*[layerid="39"] {stroke:#000000;fill:#000000;}
*[layerid="40"] {stroke:#000000;fill:#000000;}
*[layerid="41"] {stroke:#000000;fill:#000000;}
*[layerid="42"] {stroke:#000000;fill:#000000;}
*[layerid="43"] {stroke:#000000;fill:#000000;}
*[layerid="44"] {stroke:#000000;fill:#000000;}
*[layerid="45"] {stroke:#000000;fill:#000000;}
*[layerid="46"] {stroke:#000000;fill:#000000;}
*[layerid="47"] {stroke:#000000;fill:#000000;}
*[layerid="48"] {stroke:#000000;fill:#000000;}
*[layerid="49"] {stroke:#000000;fill:#000000;}
*[layerid="50"] {stroke:#000000;fill:#000000;}
*[layerid="51"] {stroke:#000000;fill:#000000;}
*[layerid="52"] {stroke:#000000;fill:#000000;}
*[layerid="99"] {stroke:#000000;fill:#000000;}
*[layerid="100"] {stroke:#000000;fill:#000000;}
*[layerid="101"] {stroke:#000000;fill:#000000;}
*[layerid="Hole"] {stroke:#000000;fill:#000000;}
*[layerid="DRCError"] {stroke:#000000;fill:#000000;}
*[fill="none"] {fill: none;}
*[stroke="none"] {stroke: none;}
path, polyline, polygon, line {stroke-linecap:round;}
g[c_partid="part_pad"][layerid="1"] ellipse:not([c_etype="pad_outer"]) {fill:#000000;}
g[c_partid="part_pad"][layerid="1"] polygon:not([c_etype="pad_outer"]) {fill:#000000;}
g[c_partid="part_pad"][layerid="1"] polyline:not([c_etype="pad_outer"]) {stroke:#000000;}
g[c_partid="part_pad"][layerid="2"] ellipse:not([c_etype="pad_outer"]) {fill:#000000;}
g[c_partid="part_pad"][layerid="2"] polygon:not([c_etype="pad_outer"]) {fill:#000000;}
g[c_partid="part_pad"][layerid="2"] polyline:not([c_etype="pad_outer"]) {stroke:#000000;}
g[c_partid="part_pad"][layerid="11"] ellipse:not([c_etype="pad_outer"]) {fill:#000000;}
g[c_partid="part_pad"][layerid="11"] polygon:not([c_etype="pad_outer"]) {fill:#000000;}
g[c_partid="part_pad"][layerid="11"] polyline:not([c_etype="pad_outer"]) {stroke:#000000;}
g[c_partid="part_pad"][layerid="11"] circle {fill:#FFFFFF;}
g[c_partid="part_pad"][layerid="11"] > polyline:nth-of-type(2) {stroke:#FFFFFF;}
g[c_partid="part_pad"][layerid="11"][c_shape="ELLIPSE"]  polyline:nth-last-of-type(1) {stroke:#FFFFFF;}
g[c_partid="part_pad"][layerid="11"][c_shape="RECT"]  polyline:nth-last-of-type(1) {stroke:#FFFFFF;}
g[c_partid="part_pad"][layerid="11"][c_shape="POLYGON"]  polyline:nth-last-of-type(1) {stroke:#FFFFFF;}
g[c_partid="part_via"] > * + circle, #gCurParts g[c_partid="part_via"] > * + circle {fill:#FFFFFF;}
g[c_partid="part_pad"] > polygon[c_etype="pad_outer"], #gCurParts g[c_partid="part_pad"] > polygon[c_etype="pad_outer"] {stroke-linejoin: round;stroke-miterlimit: 100;}
g[c_partid="part_hole"] > circle {fill: #FFFFFF;}path, polyline, polygon {stroke-linejoin:round;}
rect, circle, ellipse, polyline, line, polygon, path {shape-rendering:crispEdges;}
</style>
<rect x="4037.6" y="3037.6" width="370" height="220" fill="#FFFFFF" stroke="none"/><polyline points="4166.6381 3160.5002 4154.5 3148.3621 4154.5 3145" stroke-width="1"  stroke-linecap="round" fill="none" layerid="1" net="U1_8" id="gge1806" locked="0" /><polyline points="4169.0001 3157.9411 4169.0001 3156.2541" stroke-width="1"  stroke-linecap="round" fill="none" layerid="1" net="U1_7" id="gge1776" locked="0" /><polyline points="4199.2561 3160.5001 4196.5801 3160.5001" stroke-width="1"  stroke-linecap="round" fill="none" layerid="1" net="U1_7" id="gge1773" locked="0" /><polyline points="4167.0321 3155.8561 4169.0001 3155.8561" stroke-width="1"  stroke-linecap="round" fill="none" layerid="1" net="U1_7" id="gge1770" locked="0" /><polyline points="4169.0001 3156.2541 4169.0001 3155.8561" stroke-width="1"  stroke-linecap="round" fill="none" layerid="1" net="U1_7" id="gge1767" locked="0" /><polyline points="4169.0001 3155.8561 4169.0051 3155.8511 4194.6071 3155.8511 4196.5801 3157.8241 4196.5801 3160.5001" stroke-width="1"  stroke-linecap="round" fill="none" layerid="1" net="U1_7" id="gge1764" locked="0" /><polyline points="4167.0321 3157.9411 4167.0321 3156.8981" stroke-width="1"  stroke-linecap="round" fill="none" layerid="1" net="U1_7" id="gge1761" locked="0" /><polyline points="4167.0321 3156.8981 4167.0321 3155.8561" stroke-width="1"  stroke-linecap="round" fill="none" layerid="1" net="U1_7" id="gge1758" locked="0" /><polyline points="4182.4661 3175.0001 4177.4541 3169.9881 4167.1551 3169.9881 4164.6461 3167.4791 4164.6461 3159.2841 4167.0321 3156.8981" stroke-width="1"  stroke-linecap="round" fill="none" layerid="1" net="U1_7" id="gge1755" locked="0" /><polyline points="4169.0001 3165.1441 4169.0051 3165.1491 4186.4191 3165.1491 4191.0681 3160.5001" stroke-width="1"  stroke-linecap="round" fill="none" layerid="1" net="U1_2" id="gge1752" locked="0" /><polyline points="4169.0001 3163.0591 4169.0001 3165.1441" stroke-width="1"  stroke-linecap="round" fill="none" layerid="1" net="U1_2" id="gge1749" locked="0" /><polyline points="4193.7441 3160.5001 4191.0681 3160.5001" stroke-width="1"  stroke-linecap="round" fill="none" layerid="1" net="U1_2" id="gge1746" locked="0" /><polyline points="4373.8651 3235.0001 4268.2441 3235.0001 4193.7441 3160.5001" stroke-width="1"  stroke-linecap="round" fill="none" layerid="1" net="U1_2" id="gge1743" locked="0" /><polyline points="4179.2231 3175.0001 4179.2231 3177.6891 4240.3951 3238.8611 4376.7391 3238.8611 4379.0661 3236.5341 4379.0661 3235.0001" stroke-width="1"  stroke-linecap="round" fill="none" layerid="1" net="LED1_1" id="gge1740" locked="0" /><polyline points="4176.5341 3175.0001 4179.2231 3175.0001" stroke-width="1"  stroke-linecap="round" fill="none" layerid="1" net="LED1_1" id="gge1737" locked="0" /><polyline points="4382.1351 3235.0001 4379.0661 3235.0001" stroke-width="1"  stroke-linecap="round" fill="none" layerid="1" net="LED1_1" id="gge1734" locked="0" /><polyline points="4139.5001 3150.0001 4141.1141 3150.0001 4141.7641 3150.6501 4141.7641 3231.3581 4141.7601 3231.4551 4141.7481 3231.5511 4141.7281 3231.6461 4141.7011 3231.7401 4141.6651 3231.8301 4141.6231 3231.9171 4141.5731 3232.0011 4141.5171 3232.0801 4141.4551 3232.1551 4141.3861 3232.2241 4141.3121 3232.2871 4141.2341 3232.3431 4141.1501 3232.3941 4141.0631 3232.4371 4140.9731 3232.4731 4140.8801 3232.5011 4140.7851 3232.5211 4140.6891 3232.5341 4140.5921 3232.5391 4140.5831 3232.5391" stroke-width="1"  stroke-linecap="round" fill="none" layerid="1" net="U1_1" id="gge1728" locked="0" /><polyline points="4167.0321 3163.0591 4167.0321 3166.5091" stroke-width="1"  stroke-linecap="round" fill="none" layerid="1" net="U1_1" id="gge1722" locked="0" /><polyline points="4062.236 3063.642 4062.236 3231.358" stroke-width="1.181"  stroke-linecap="round" fill="none" layerid="1" net="" id="gge21" locked="0" /><polyline points="4059.874 3063.642 4059.874 3231.358" stroke-width="1.181"  stroke-linecap="round" fill="none" layerid="1" net="" id="gge24" locked="0" /><polyline points="4057.512 3063.642 4057.512 3231.358" stroke-width="1.181"  stroke-linecap="round" fill="none" layerid="1" net="" id="gge27" locked="0" /><polyline points="4055.15 3063.642 4055.15 3231.358" stroke-width="1.181"  stroke-linecap="round" fill="none" layerid="1" net="" id="gge30" locked="0" /><polyline points="4052.788 3063.642 4052.788 3231.358" stroke-width="1.181"  stroke-linecap="round" fill="none" layerid="1" net="" id="gge33" locked="0" /><polyline points="4140.583 3062.461 4063.417 3062.461" stroke-width="1.181"  stroke-linecap="round" fill="none" layerid="1" net="" id="gge36" locked="0" /><polyline points="4140.583 3060.099 4063.417 3060.099" stroke-width="1.181"  stroke-linecap="round" fill="none" layerid="1" net="" id="gge39" locked="0" /><polyline points="4140.583 3057.736 4063.417 3057.736" stroke-width="1.181"  stroke-linecap="round" fill="none" layerid="1" net="" id="gge42" locked="0" /><polyline points="4140.583 3055.374 4063.417 3055.374" stroke-width="1.181"  stroke-linecap="round" fill="none" layerid="1" net="" id="gge45" locked="0" /><polyline points="4140.583 3053.012 4063.417 3053.012" stroke-width="1.181"  stroke-linecap="round" fill="none" layerid="1" net="" id="gge48" locked="0" /><polyline points="4140.583 3232.539 4063.417 3232.539" stroke-width="1.181"  stroke-linecap="round" fill="none" layerid="1" net="" id="gge51" locked="0" /><polyline points="4140.583 3234.901 4063.417 3234.901" stroke-width="1.181"  stroke-linecap="round" fill="none" layerid="1" net="" id="gge54" locked="0" /><polyline points="4140.583 3237.264 4063.417 3237.264" stroke-width="1.181"  stroke-linecap="round" fill="none" layerid="1" net="" id="gge57" locked="0" /><polyline points="4140.583 3239.626 4063.417 3239.626" stroke-width="1.181"  stroke-linecap="round" fill="none" layerid="1" net="" id="gge60" locked="0" /><polyline points="4140.583 3241.988 4063.417 3241.988" stroke-width="1.181"  stroke-linecap="round" fill="none" layerid="1" net="" id="gge63" locked="0" /><polyline points="4141.764 3063.642 4141.764 3147.5 4144.126 3149.862 4144.126 3231.358" stroke-width="1.181"  stroke-linecap="round" fill="none" layerid="1" net="" id="gge126" locked="0" /><polyline points="4146.488 3063.642 4146.488 3145.925 4148.85 3148.287 4148.85 3231.358" stroke-width="1.181"  stroke-linecap="round" fill="none" layerid="1" net="" id="gge129" locked="0" /><polyline points="4144.126 3063.642 4144.126 3146.713 4146.488 3149.075 4146.488 3231.358" stroke-width="1.181"  stroke-linecap="round" fill="none" layerid="1" net="" id="gge132" locked="0" /><polyline points="4148.85 3063.642 4148.85 3145.138 4151.213 3147.5 4151.213 3231.358" stroke-width="1.181"  stroke-linecap="round" fill="none" layerid="1" net="" id="gge135" locked="0" /><polyline points="4141.764 3231.358 4141.764 3150.65 4141.114 3150 4139.5 3150" stroke-width="1.181"  stroke-linecap="round" fill="none" layerid="1" net="" id="gge138" locked="0" /><polyline points="4155 3145 4154.5 3145 4151.862 3145 4151.213 3144.35 4151.213 3063.642" stroke-width="1.181"  stroke-linecap="round" fill="none" layerid="1" net="" id="gge141" locked="0" /><g c_partid="part_pad" c_etype="pinpart" c_origin="4154.5,3145" layerid="1" number="P$1" net="U1_8" plated ="Y"  id="gge144" locked="0" c_rotation="0" c_width="2.953" c_height="1.181" title="U1_8" c_shape="RECT" pasteexpansion="0" solderexpansion="0.2"><polygon  c_etype="pad_shell" points="4153.0235 3144.4095 4155.9765 3144.4095 4155.9765 3145.5905 4153.0235 3145.5905" layerid="1" stroke-width="0" /><circle c_etype="pad_hole" cx="4154.5" cy="3145" r="0" layerid="1" stroke-width="0"/></g><g c_partid="part_pad" c_etype="pinpart" c_origin="4199.256,3160.5" layerid="1" number="2" net="U1_7" plated ="Y"  id="gge240" locked="0" c_rotation="0" c_width="3.1496" c_height="3.5433" title="U1_7" c_shape="RECT" pasteexpansion="0.0000" solderexpansion="0.2000"><polygon  c_etype="pad_shell" points="4197.6811 3158.7283 4200.8307 3158.7283 4200.8307 3162.2717 4197.6811 3162.2717" layerid="1" stroke-width="0" /><circle c_etype="pad_hole" cx="4199.2555" cy="3160.5" r="0" layerid="1" stroke-width="0"/></g><g c_partid="part_pad" c_etype="pinpart" c_origin="4193.744,3160.5" layerid="1" number="1" net="U1_2" plated ="Y"  id="gge255" locked="0" c_rotation="0" c_width="3.1496" c_height="3.5433" title="U1_2" c_shape="RECT" pasteexpansion="0.0000" solderexpansion="0.2000"><polygon  c_etype="pad_shell" points="4192.1693 3158.7283 4195.3189 3158.7283 4195.3189 3162.2717 4192.1693 3162.2717" layerid="1" stroke-width="0" /><circle c_etype="pad_hole" cx="4193.7445" cy="3160.5" r="0" layerid="1" stroke-width="0"/></g><g c_partid="part_pad" c_etype="pinpart" c_origin="4373.865,3235" layerid="1" number="2" net="U1_2" plated ="Y"  id="gge327" locked="0" c_rotation="180" c_width="3.937" c_height="5.51" title="U1_2" c_shape="RECT" pasteexpansion="0" solderexpansion="0.2"><polygon  c_etype="pad_shell" points="4371.8965 3237.755 4375.8335 3237.755 4375.8335 3232.245 4371.8965 3232.245" layerid="1" stroke-width="0" /><circle c_etype="pad_hole" cx="4373.865" cy="3235" r="0" layerid="1" stroke-width="0"/></g><g c_partid="part_pad" c_etype="pinpart" c_origin="4382.135,3235" layerid="1" number="1" net="LED1_1" plated ="Y"  id="gge342" locked="0" c_rotation="180" c_width="3.937" c_height="5.51" title="LED1_1" c_shape="RECT" pasteexpansion="0" solderexpansion="0.2"><polygon  c_etype="pad_shell" points="4384.1035 3237.755 4380.1665 3237.755 4380.1665 3232.245 4384.1035 3232.245" layerid="1" stroke-width="0" /><circle c_etype="pad_hole" cx="4382.135" cy="3235" r="0" layerid="1" stroke-width="0"/></g><g c_partid="part_pad" c_etype="pinpart" c_origin="4182.466,3175" layerid="1" number="2" net="U1_7" plated ="Y"  id="gge396" locked="0" c_rotation="0" c_width="3.1751" c_height="3.4016" title="U1_7" c_shape="RECT" pasteexpansion="-393.7008" solderexpansion="0.2000"><polygon  c_etype="pad_shell" points="4180.878 3176.7008 4180.878 3173.2992 4184.0531 3173.2992 4184.0531 3176.7008" layerid="1" stroke-width="0" /><circle c_etype="pad_hole" cx="4182.4655" cy="3175" r="0" layerid="1" stroke-width="0"/></g><g c_partid="part_pad" c_etype="pinpart" c_origin="4176.534,3175" layerid="1" number="1" net="LED1_1" plated ="Y"  id="gge408" locked="0" c_rotation="0" c_width="3.1751" c_height="3.4016" title="LED1_1" c_shape="RECT" pasteexpansion="-393.7008" solderexpansion="0.2000"><polygon  c_etype="pad_shell" points="4178.122 3176.7008 4178.122 3173.2992 4174.9469 3173.2992 4174.9469 3176.7008" layerid="1" stroke-width="0" /><circle c_etype="pad_hole" cx="4176.5345" cy="3175" r="0" layerid="1" stroke-width="0"/></g><g c_partid="part_pad" c_etype="pinpart" c_origin="4167.0321,3163.0592" layerid="1" number="1" net="U1_1" plated ="Y"  id="gge501" locked="0" c_rotation="90" c_width="1.9685" c_height="1.1024" title="U1_1" c_shape="RECT" pasteexpansion="0" solderexpansion="0.2"><polygon  c_etype="pad_shell" points="4166.4809 3164.0435 4166.4809 3162.075 4167.5833 3162.075 4167.5833 3164.0435" layerid="1" stroke-width="0" /><circle c_etype="pad_hole" cx="4167.0316" cy="3163.059" r="0" layerid="1" stroke-width="0"/></g><g c_partid="part_pad" c_etype="pinpart" c_origin="4169.0001,3163.0592" layerid="1" number="2" net="U1_2" plated ="Y"  id="gge516" locked="0" c_rotation="90" c_width="1.9685" c_height="1.1024" title="U1_2" c_shape="RECT" pasteexpansion="0" solderexpansion="0.2"><polygon  c_etype="pad_shell" points="4168.4489 3164.0435 4168.4489 3162.075 4169.5513 3162.075 4169.5513 3164.0435" layerid="1" stroke-width="0" /><circle c_etype="pad_hole" cx="4168.9996" cy="3163.059" r="0" layerid="1" stroke-width="0"/></g><g c_partid="part_pad" c_etype="pinpart" c_origin="4170.9681,3163.0592" layerid="1" number="3" net="U1_3" plated ="Y"  id="gge531" locked="0" c_rotation="90" c_width="1.9685" c_height="1.1024" title="U1_3" c_shape="RECT" pasteexpansion="0" solderexpansion="0.2"><polygon  c_etype="pad_shell" points="4170.4169 3164.0435 4170.4169 3162.075 4171.5193 3162.075 4171.5193 3164.0435" layerid="1" stroke-width="0" /><circle c_etype="pad_hole" cx="4170.9686" cy="3163.059" r="0" layerid="1" stroke-width="0"/></g><g c_partid="part_pad" c_etype="pinpart" c_origin="4171.3621,3160.5002" layerid="1" number="4" net="U1_4" plated ="Y"  id="gge546" locked="0" c_rotation="180" c_width="1.7717" c_height="1.1811" title="U1_4" c_shape="RECT" pasteexpansion="0" solderexpansion="0.2"><polygon  c_etype="pad_shell" points="4172.2479 3161.0908 4170.4763 3161.0908 4170.4763 3159.9097 4172.2479 3159.9097" layerid="1" stroke-width="0" /><circle c_etype="pad_hole" cx="4171.3624" cy="3160.5" r="0" layerid="1" stroke-width="0"/></g><g c_partid="part_pad" c_etype="pinpart" c_origin="4170.9691,3157.9412" layerid="1" number="5" net="U1_5" plated ="Y"  id="gge561" locked="0" c_rotation="90" c_width="1.9685" c_height="1.1024" title="U1_5" c_shape="RECT" pasteexpansion="0" solderexpansion="0.2"><polygon  c_etype="pad_shell" points="4170.4179 3158.9255 4170.4179 3156.957 4171.5203 3156.957 4171.5203 3158.9255" layerid="1" stroke-width="0" /><circle c_etype="pad_hole" cx="4170.9686" cy="3157.941" r="0" layerid="1" stroke-width="0"/></g><g c_partid="part_pad" c_etype="pinpart" c_origin="4169.0001,3157.9412" layerid="1" number="6" net="U1_7" plated ="Y"  id="gge576" locked="0" c_rotation="90" c_width="1.9685" c_height="1.1024" title="U1_7" c_shape="RECT" pasteexpansion="0" solderexpansion="0.2"><polygon  c_etype="pad_shell" points="4168.4489 3158.9255 4168.4489 3156.957 4169.5513 3156.957 4169.5513 3158.9255" layerid="1" stroke-width="0" /><circle c_etype="pad_hole" cx="4169.0006" cy="3157.941" r="0" layerid="1" stroke-width="0"/></g><g c_partid="part_pad" c_etype="pinpart" c_origin="4167.0321,3157.9412" layerid="1" number="7" net="U1_7" plated ="Y"  id="gge591" locked="0" c_rotation="90" c_width="1.9685" c_height="1.1024" title="U1_7" c_shape="RECT" pasteexpansion="0" solderexpansion="0.2"><polygon  c_etype="pad_shell" points="4166.4809 3158.9255 4166.4809 3156.957 4167.5833 3156.957 4167.5833 3158.9255" layerid="1" stroke-width="0" /><circle c_etype="pad_hole" cx="4167.0316" cy="3157.941" r="0" layerid="1" stroke-width="0"/></g><g c_partid="part_pad" c_etype="pinpart" c_origin="4166.6381,3160.5002" layerid="1" number="8" net="U1_8" plated ="Y"  id="gge606" locked="0" c_rotation="180" c_width="1.7717" c_height="1.1811" title="U1_8" c_shape="RECT" pasteexpansion="0" solderexpansion="0.2"><polygon  c_etype="pad_shell" points="4167.5239 3161.0908 4165.7523 3161.0908 4165.7523 3159.9097 4167.5239 3159.9097" layerid="1" stroke-width="0" /><circle c_etype="pad_hole" cx="4166.6378" cy="3160.5" r="0" layerid="1" stroke-width="0"/></g><g c_partid="part_pad" c_etype="pinpart" c_origin="4169.0001,3160.5002" layerid="1" number="9" net="U1_9" plated ="Y"  id="gge621" locked="0" c_rotation="180" c_width="1.1811" c_height="1.1811" title="U1_9" c_shape="RECT" pasteexpansion="0" solderexpansion="0.2"><polygon  c_etype="pad_shell" points="4169.5902 3161.0906 4168.409 3161.0906 4168.409 3159.9095 4169.5902 3159.9095" layerid="1" stroke-width="0" /><circle c_etype="pad_hole" cx="4169.0006" cy="3160.5" r="0" layerid="1" stroke-width="0"/></g><path d="M 4141.764 3231.358 A 1.181 1.181 0 0 1 4140.583 3232.539" locked="0"  fill="none" stroke-width="1.181" c_helper_type="arc2" net="" layerid="1" id="gge66" /><path d="M 4144.126 3231.358 A 3.543 3.543 0 0 1 4140.583 3234.901" locked="0"  fill="none" stroke-width="1.181" c_helper_type="arc2" net="" layerid="1" id="gge69" /><path d="M 4146.488 3231.358 A 5.905 5.905 0 0 1 4140.583 3237.264" locked="0"  fill="none" stroke-width="1.181" c_helper_type="arc2" net="" layerid="1" id="gge72" /><path d="M 4148.85 3231.358 A 8.268 8.268 0 0 1 4140.583 3239.626" locked="0"  fill="none" stroke-width="1.181" c_helper_type="arc2" net="" layerid="1" id="gge75" /><path d="M 4151.213 3231.358 A 10.63 10.63 0 0 1 4140.583 3241.988" locked="0"  fill="none" stroke-width="1.181" c_helper_type="arc2" net="" layerid="1" id="gge78" /><path d="M 4141.764 3063.642 A 1.181 1.181 0 0 0 4140.583 3062.461" locked="0"  fill="none" stroke-width="1.181" c_helper_type="arc2" net="" layerid="1" id="gge81" /><path d="M 4144.126 3063.642 A 3.543 3.543 0 0 0 4140.583 3060.099" locked="0"  fill="none" stroke-width="1.181" c_helper_type="arc2" net="" layerid="1" id="gge84" /><path d="M 4146.488 3063.642 A 5.905 5.905 0 0 0 4140.583 3057.736" locked="0"  fill="none" stroke-width="1.181" c_helper_type="arc2" net="" layerid="1" id="gge87" /><path d="M 4148.85 3063.642 A 8.268 8.268 0 0 0 4140.583 3055.374" locked="0"  fill="none" stroke-width="1.181" c_helper_type="arc2" net="" layerid="1" id="gge90" /><path d="M 4151.213 3063.642 A 10.63 10.63 0 0 0 4140.583 3053.012" locked="0"  fill="none" stroke-width="1.181" c_helper_type="arc2" net="" layerid="1" id="gge93" /><path d="M 4062.236 3063.642 A 1.181 1.181 0 0 1 4063.417 3062.461" locked="0"  fill="none" stroke-width="1.181" c_helper_type="arc2" net="" layerid="1" id="gge96" /><path d="M 4059.874 3063.642 A 3.543 3.543 0 0 1 4063.417 3060.099" locked="0"  fill="none" stroke-width="1.181" c_helper_type="arc2" net="" layerid="1" id="gge99" /><path d="M 4057.512 3063.642 A 5.905 5.905 0 0 1 4063.417 3057.736" locked="0"  fill="none" stroke-width="1.181" c_helper_type="arc2" net="" layerid="1" id="gge102" /><path d="M 4055.15 3063.642 A 8.268 8.268 0 0 1 4063.417 3055.374" locked="0"  fill="none" stroke-width="1.181" c_helper_type="arc2" net="" layerid="1" id="gge105" /><path d="M 4052.787 3063.642 A 10.63 10.63 0 0 1 4063.417 3053.012" locked="0"  fill="none" stroke-width="1.181" c_helper_type="arc2" net="" layerid="1" id="gge108" /><path d="M 4062.236 3231.358 A 1.181 1.181 0 0 0 4063.417 3232.539" locked="0"  fill="none" stroke-width="1.181" c_helper_type="arc2" net="" layerid="1" id="gge111" /><path d="M 4059.874 3231.358 A 3.543 3.543 0 0 0 4063.417 3234.901" locked="0"  fill="none" stroke-width="1.181" c_helper_type="arc2" net="" layerid="1" id="gge114" /><path d="M 4057.512 3231.358 A 5.905 5.905 0 0 0 4063.417 3237.264" locked="0"  fill="none" stroke-width="1.181" c_helper_type="arc2" net="" layerid="1" id="gge117" /><path d="M 4055.15 3231.358 A 8.268 8.268 0 0 0 4063.417 3239.626" locked="0"  fill="none" stroke-width="1.181" c_helper_type="arc2" net="" layerid="1" id="gge120" /><path d="M 4052.787 3231.358 A 10.63 10.63 0 0 0 4063.417 3241.988" locked="0"  fill="none" stroke-width="1.181" c_helper_type="arc2" net="" layerid="1" id="gge123" /><g c_partid="part_pad" c_etype="pinpart" c_origin="4139.5,3150" layerid="11" number="P$2" net="U1_1" plated ="Y"  id="gge159" locked="0" c_rotation="270" c_width="3.181" c_height="3.181" title="U1_1" c_shape="ELLIPSE" pasteexpansion="0" solderexpansion="0.2"><ellipse c_etype="pad_shell" cx="4139.5" cy="3150" rx="1.5905" ry="1.5905" layerid="11" stroke-width="0"/><polyline c_etype="pad_hole" points="4139.5 3150.0005 4139.5 3149.9995" layerid="11" stroke-width="1.182"></polyline></g><g c_partid="part_via" c_etype="pinpart" c_shapetype="group" net="U1_1" c_origin="4167.0321,3166.5091" layerid="11" id="gge1731" locked="0" solderexpansion=""><circle cx="4167.0321" cy="3166.5091" r="1.2" stroke-width="0" c_etype="pad_shell"/><circle cx="4167.0321" cy="3166.5091" r="0.6"  stroke-width="0" c_etype="pad_hole"/></g><polyline points="4201.9725 3158.9261 4201.9725 3162.0758" stroke-width="1"  stroke-linecap="round" fill="none" layerid="3" net="" id="gge201" locked="0" /><polyline points="4197.6034 3157.7062 4200.7529 3157.7062" stroke-width="1"  stroke-linecap="round" fill="none" layerid="3" net="" id="gge204" locked="0" /><polyline points="4197.6034 3163.2954 4200.7529 3163.2954" stroke-width="1"  stroke-linecap="round" fill="none" layerid="3" net="" id="gge207" locked="0" /><polyline points="4195.3361 3157.6833 4192.1865 3157.6833" stroke-width="1"  stroke-linecap="round" fill="none" layerid="3" net="" id="gge210" locked="0" /><polyline points="4190.9667 3158.9031 4190.9667 3162.0526" stroke-width="1"  stroke-linecap="round" fill="none" layerid="3" net="" id="gge213" locked="0" /><polyline points="4195.3361 3163.2723 4192.1865 3163.2723" stroke-width="1"  stroke-linecap="round" fill="none" layerid="3" net="" id="gge216" locked="0" /><polyline points="4378.7874 3233.0315 4377.2126 3234.6063 4376.8189 3235 4377.2126 3235.3947 4378.7874 3236.9695" stroke-width="1"  stroke-linecap="round" fill="none" layerid="3" net="" id="gge300" locked="0" /><polyline points="4378.7874 3233.0315 4378.7874 3236.9695" stroke-width="1"  stroke-linecap="round" fill="none" layerid="3" net="" id="gge303" locked="0" /><polyline points="4379.745 3239.005 4385.845 3239.005 4385.845 3231.005 4379.745 3231.005" stroke-width="1"  stroke-linecap="round" fill="none" layerid="3" net="" id="gge306" locked="0" /><polyline points="4376.645 3239.105 4370.845 3239.105 4369.245 3237.505 4369.245 3232.505 4370.745 3231.005 4376.745 3231.005" stroke-width="1"  stroke-linecap="round" fill="none" layerid="3" net="" id="gge309" locked="0" /><polyline points="4181.178 3177.6008 4184.9531 3177.6008 4184.9531 3172.3992 4181.178 3172.3992" stroke-width="0.6"  stroke-linecap="round" fill="none" layerid="3" net="" id="gge384" locked="0" /><polyline points="4177.822 3177.6008 4174.0469 3177.6008 4174.0469 3172.3992 4177.822 3172.3992" stroke-width="0.6"  stroke-linecap="round" fill="none" layerid="3" net="" id="gge387" locked="0" /><polyline points="4172.3785 3156.5629 4172.9371 3156.5629" stroke-width="1"  stroke-linecap="round" fill="none" layerid="3" net="" id="gge474" locked="0" /><polyline points="4165.063 3159.2201 4165.063 3156.5629 4165.6219 3156.5629" stroke-width="1"  stroke-linecap="round" fill="none" layerid="3" net="" id="gge477" locked="0" /><polyline points="4165.6219 3164.4369 4165.063 3164.4369 4165.063 3161.7792" stroke-width="1"  stroke-linecap="round" fill="none" layerid="3" net="" id="gge480" locked="0" /><polyline points="4172.9371 3164.4369 4172.3785 3164.4369" stroke-width="1"  stroke-linecap="round" fill="none" layerid="3" net="" id="gge483" locked="0" /><polyline points="4172.9371 3161.7792 4172.9371 3164.4369" stroke-width="1"  stroke-linecap="round" fill="none" layerid="3" net="" id="gge486" locked="0" /><polyline points="4172.9371 3156.5629 4172.9371 3159.2201" stroke-width="1"  stroke-linecap="round" fill="none" layerid="3" net="" id="gge489" locked="0" /><g c_partid="part_pcbtext" c_etype="pinpart" c_origin="4214.7238,3081.4996" c_rotation="0" c_mirror="0" id="gge1848" locked="0" layerid="3" c_shapetype="group" ><path c_fontsize="19.685" c_fontfamily="" c_text="Anik Shaikh" d="M 4221.88 3061.64L4214.72 3080.43 M 4221.88 3061.64L4229.04 3080.43 M 4217.41 3074.16L4226.36 3074.16 M 4234.95 3067.9L4234.95 3080.43 M 4234.95 3071.48L4237.63 3068.79 L4239.42 3067.9 L4242.1 3067.9 L4243.89 3068.79 L4244.79 3071.48 L4244.79 3080.43 M 4250.69 3061.64L4251.59 3062.53 L4252.48 3061.64 L4251.59 3060.74 L4250.69 3061.64 M 4251.59 3067.9L4251.59 3080.43 M 4258.39 3061.64L4258.39 3080.43 M 4267.34 3067.9L4258.39 3076.85 M 4261.97 3073.27L4268.23 3080.43 M 4300.44 3064.32L4298.65 3062.53 L4295.97 3061.64 L4292.39 3061.64 L4289.71 3062.53 L4287.92 3064.32 L4287.92 3066.11 L4288.81 3067.9 L4289.71 3068.79 L4291.5 3069.69 L4296.86 3071.48 L4298.65 3072.37 L4299.55 3073.27 L4300.44 3075.06 L4300.44 3077.74 L4298.65 3079.53 L4295.97 3080.43 L4292.39 3080.43 L4289.71 3079.53 L4287.92 3077.74 M 4306.35 3061.64L4306.35 3080.43 M 4306.35 3071.48L4309.03 3068.79 L4310.82 3067.9 L4313.51 3067.9 L4315.3 3068.79 L4316.19 3071.48 L4316.19 3080.43 M 4332.83 3067.9L4332.83 3080.43 M 4332.83 3070.58L4331.04 3068.79 L4329.25 3067.9 L4326.57 3067.9 L4324.78 3068.79 L4322.99 3070.58 L4322.1 3073.27 L4322.1 3075.06 L4322.99 3077.74 L4324.78 3079.53 L4326.57 3080.43 L4329.25 3080.43 L4331.04 3079.53 L4332.83 3077.74 M 4338.74 3061.64L4339.63 3062.53 L4340.53 3061.64 L4339.63 3060.74 L4338.74 3061.64 M 4339.63 3067.9L4339.63 3080.43 M 4346.43 3061.64L4346.43 3080.43 M 4355.38 3067.9L4346.43 3076.85 M 4350.01 3073.27L4356.28 3080.43 M 4362.18 3061.64L4362.18 3080.43 M 4362.18 3071.48L4364.87 3068.79 L4366.66 3067.9 L4369.34 3067.9 L4371.13 3068.79 L4372.02 3071.48 L4372.02 3080.43 " fill="none"  stroke-width="0.8"  /></g><g c_partid="part_pcbtext" c_etype="pinpart" c_origin="4231.7238,3104.4996" c_rotation="0" c_mirror="0" id="gge1869" locked="0" layerid="3" c_shapetype="group" ><path c_fontsize="9.8425" c_fontfamily="" c_text="Github - @Anik2812" d="M 4238.4319 3096.7998 L 4237.9919 3095.9098 L 4237.0919 3095.0198 L 4236.2019 3094.5698 L 4234.4119 3094.5698 L 4233.5119 3095.0198 L 4232.6219 3095.9098 L 4232.1719 3096.7998 L 4231.7219 3098.1498 L 4231.7219 3100.3798 L 4232.1719 3101.7298 L 4232.6219 3102.6198 L 4233.5119 3103.5198 L 4234.4119 3103.9598 L 4236.2019 3103.9598 L 4237.0919 3103.5198 L 4237.9919 3102.6198 L 4238.4319 3101.7298 L 4238.4319 3100.3798 M 4236.2019 3100.3798 L 4238.4319 3100.3798 M 4241.3919 3094.5698 L 4241.8319 3095.0198 L 4242.2819 3094.5698 L 4241.8319 3094.1198 L 4241.3919 3094.5698 M 4241.8319 3097.6998 L 4241.8319 3103.9598 M 4246.5819 3094.5698 L 4246.5819 3102.1698 L 4247.0219 3103.5198 L 4247.9219 3103.9598 L 4248.8119 3103.9598 M 4245.2319 3097.6998 L 4248.3619 3097.6998 M 4251.7619 3094.5698 L 4251.7619 3103.9598 M 4251.7619 3099.4898 L 4253.1119 3098.1498 L 4254.0019 3097.6998 L 4255.3419 3097.6998 L 4256.2419 3098.1498 L 4256.6919 3099.4898 L 4256.6919 3103.9598 M 4259.6419 3097.6998 L 4259.6419 3102.1698 L 4260.0919 3103.5198 L 4260.9819 3103.9598 L 4262.3219 3103.9598 L 4263.2219 3103.5198 L 4264.5619 3102.1698 M 4264.5619 3097.6998 L 4264.5619 3103.9598 M 4267.5119 3094.5698 L 4267.5119 3103.9598 M 4267.5119 3099.0398 L 4268.4119 3098.1498 L 4269.3019 3097.6998 L 4270.6419 3097.6998 L 4271.5419 3098.1498 L 4272.4319 3099.0398 L 4272.8819 3100.3798 L 4272.8819 3101.2798 L 4272.4319 3102.6198 L 4271.5419 3103.5198 L 4270.6419 3103.9598 L 4269.3019 3103.9598 L 4268.4119 3103.5198 L 4267.5119 3102.6198 M 4282.7219 3099.9398 L 4290.7819 3099.9398 M 4307.3319 3098.1498 L 4306.8819 3097.2498 L 4305.9919 3096.7998 L 4304.6519 3096.7998 L 4303.7519 3097.2498 L 4303.3019 3097.6998 L 4302.8619 3099.0398 L 4302.8619 3100.3798 L 4303.3019 3101.2798 L 4304.2019 3101.7298 L 4305.5419 3101.7298 L 4306.4419 3101.2798 L 4306.8819 3100.3798 M 4304.6519 3096.7998 L 4303.7519 3097.6998 L 4303.3019 3099.0398 L 4303.3019 3100.3798 L 4303.7519 3101.2798 L 4304.2019 3101.7298 M 4307.3319 3096.7998 L 4306.8819 3100.3798 L 4306.8819 3101.2798 L 4307.7819 3101.7298 L 4308.6719 3101.7298 L 4309.5719 3100.8298 L 4310.0119 3099.4898 L 4310.0119 3098.5898 L 4309.5719 3097.2498 L 4309.1219 3096.3598 L 4308.2219 3095.4598 L 4307.3319 3095.0198 L 4305.9919 3094.5698 L 4304.6519 3094.5698 L 4303.3019 3095.0198 L 4302.4119 3095.4598 L 4301.5119 3096.3598 L 4301.0719 3097.2498 L 4300.6219 3098.5898 L 4300.6219 3099.9398 L 4301.0719 3101.2798 L 4301.5119 3102.1698 L 4302.4119 3103.0698 L 4303.3019 3103.5198 L 4304.6519 3103.9598 L 4305.9919 3103.9598 L 4307.3319 3103.5198 L 4308.2219 3103.0698 L 4308.6719 3102.6198 M 4307.7819 3096.7998 L 4307.3319 3100.3798 L 4307.3319 3101.2798 L 4307.7819 3101.7298 M 4316.5519 3094.5698 L 4312.9719 3103.9598 M 4316.5519 3094.5698 L 4320.1319 3103.9598 M 4314.3119 3100.8298 L 4318.7819 3100.8298 M 4323.0819 3097.6998 L 4323.0819 3103.9598 M 4323.0819 3099.4898 L 4324.4219 3098.1498 L 4325.3219 3097.6998 L 4326.6619 3097.6998 L 4327.5519 3098.1498 L 4328.0019 3099.4898 L 4328.0019 3103.9598 M 4330.9519 3094.5698 L 4331.4019 3095.0198 L 4331.8519 3094.5698 L 4331.4019 3094.1198 L 4330.9519 3094.5698 M 4331.4019 3097.6998 L 4331.4019 3103.9598 M 4334.8019 3094.5698 L 4334.8019 3103.9598 M 4339.2719 3097.6998 L 4334.8019 3102.1698 M 4336.5919 3100.3798 L 4339.7219 3103.9598 M 4343.1219 3096.7998 L 4343.1219 3096.3598 L 4343.5719 3095.4598 L 4344.0219 3095.0198 L 4344.9119 3094.5698 L 4346.7019 3094.5698 L 4347.5919 3095.0198 L 4348.0419 3095.4598 L 4348.4919 3096.3598 L 4348.4919 3097.2498 L 4348.0419 3098.1498 L 4347.1519 3099.4898 L 4342.6719 3103.9598 L 4348.9419 3103.9598 M 4354.1319 3094.5698 L 4352.7819 3095.0198 L 4352.3419 3095.9098 L 4352.3419 3096.7998 L 4352.7819 3097.6998 L 4353.6819 3098.1498 L 4355.4719 3098.5898 L 4356.8119 3099.0398 L 4357.7119 3099.9398 L 4358.1519 3100.8298 L 4358.1519 3102.1698 L 4357.7119 3103.0698 L 4357.2619 3103.5198 L 4355.9219 3103.9598 L 4354.1319 3103.9598 L 4352.7819 3103.5198 L 4352.3419 3103.0698 L 4351.8919 3102.1698 L 4351.8919 3100.8298 L 4352.3419 3099.9398 L 4353.2319 3099.0398 L 4354.5719 3098.5898 L 4356.3619 3098.1498 L 4357.2619 3097.6998 L 4357.7119 3096.7998 L 4357.7119 3095.9098 L 4357.2619 3095.0198 L 4355.9219 3094.5698 L 4354.1319 3094.5698 M 4361.1119 3096.3598 L 4362.0019 3095.9098 L 4363.3419 3094.5698 L 4363.3419 3103.9598 M 4366.7419 3096.7998 L 4366.7419 3096.3598 L 4367.1919 3095.4598 L 4367.6419 3095.0198 L 4368.5319 3094.5698 L 4370.3219 3094.5698 L 4371.2219 3095.0198 L 4371.6619 3095.4598 L 4372.1119 3096.3598 L 4372.1119 3097.2498 L 4371.6619 3098.1498 L 4370.7719 3099.4898 L 4366.3019 3103.9598 L 4372.5619 3103.9598" fill="none"  stroke-width="0.8"  /></g><g c_partid="part_pcbtext" c_etype="" c_origin="4164,3147.5" c_rotation="270" c_mirror="" id="gge9" locked="0" layerid="3" c_shapetype="group" display="none"><path c_fontsize="4.5" c_fontfamily="" c_text="25X48MM_NFC_ANTENNA" d="M 4167.52 3147.7 L 4167.72 3147.7 L 4168.13 3147.91 L 4168.34 3148.11 L 4168.54 3148.52 L 4168.54 3149.34 L 4168.34 3149.75 L 4168.13 3149.95 L 4167.72 3150.16 L 4167.31 3150.16 L 4166.9 3149.95 L 4166.29 3149.55 L 4164.25 3147.5 L 4164.25 3150.36 M 4168.54 3154.17 L 4168.54 3152.12 L 4166.7 3151.92 L 4166.9 3152.12 L 4167.11 3152.74 L 4167.11 3153.35 L 4166.9 3153.96 L 4166.5 3154.37 L 4165.88 3154.58 L 4165.47 3154.58 L 4164.86 3154.37 L 4164.45 3153.96 L 4164.25 3153.35 L 4164.25 3152.74 L 4164.45 3152.12 L 4164.65 3151.92 L 4165.06 3151.71 M 4168.54 3155.93 L 4164.25 3158.79 M 4168.54 3158.79 L 4164.25 3155.93 M 4168.54 3162.19 L 4165.68 3160.14 L 4165.68 3163.21 M 4168.54 3162.19 L 4164.25 3162.19 M 4168.54 3165.58 L 4168.34 3164.97 L 4167.93 3164.76 L 4167.52 3164.76 L 4167.11 3164.97 L 4166.9 3165.38 L 4166.7 3166.2 L 4166.5 3166.81 L 4166.09 3167.22 L 4165.68 3167.42 L 4165.06 3167.42 L 4164.65 3167.22 L 4164.45 3167.01 L 4164.25 3166.4 L 4164.25 3165.58 L 4164.45 3164.97 L 4164.65 3164.76 L 4165.06 3164.56 L 4165.68 3164.56 L 4166.09 3164.76 L 4166.5 3165.17 L 4166.7 3165.79 L 4166.9 3166.6 L 4167.11 3167.01 L 4167.52 3167.22 L 4167.93 3167.22 L 4168.34 3167.01 L 4168.54 3166.4 L 4168.54 3165.58 M 4168.54 3168.77 L 4164.25 3168.77 M 4168.54 3168.77 L 4164.25 3170.41 M 4168.54 3172.05 L 4164.25 3170.41 M 4168.54 3172.05 L 4164.25 3172.05 M 4168.54 3173.4 L 4164.25 3173.4 M 4168.54 3173.4 L 4164.25 3175.03 M 4168.54 3176.67 L 4164.25 3175.03 M 4168.54 3176.67 L 4164.25 3176.67 M 4162.81 3178.02 L 4162.81 3181.7 M 4168.54 3183.05 L 4164.25 3183.05 M 4168.54 3183.05 L 4164.25 3185.91 M 4168.54 3185.91 L 4164.25 3185.91 M 4168.54 3187.26 L 4164.25 3187.26 M 4168.54 3187.26 L 4168.54 3189.92 M 4166.5 3187.26 L 4166.5 3188.9 M 4167.52 3194.34 L 4167.93 3194.14 L 4168.34 3193.73 L 4168.54 3193.32 L 4168.54 3192.5 L 4168.34 3192.09 L 4167.93 3191.68 L 4167.52 3191.48 L 4166.9 3191.27 L 4165.88 3191.27 L 4165.27 3191.48 L 4164.86 3191.68 L 4164.45 3192.09 L 4164.25 3192.5 L 4164.25 3193.32 L 4164.45 3193.73 L 4164.86 3194.14 L 4165.27 3194.34 M 4162.81 3195.69 L 4162.81 3199.37 M 4168.54 3202.36 L 4164.25 3200.72 M 4168.54 3202.36 L 4164.25 3204 M 4165.68 3201.34 L 4165.68 3203.38 M 4168.54 3205.35 L 4164.25 3205.35 M 4168.54 3205.35 L 4164.25 3208.21 M 4168.54 3208.21 L 4164.25 3208.21 M 4168.54 3210.99 L 4164.25 3210.99 M 4168.54 3209.56 L 4168.54 3212.42 M 4168.54 3213.77 L 4164.25 3213.77 M 4168.54 3213.77 L 4168.54 3216.43 M 4166.5 3213.77 L 4166.5 3215.41 M 4164.25 3213.77 L 4164.25 3216.43 M 4168.54 3217.78 L 4164.25 3217.78 M 4168.54 3217.78 L 4164.25 3220.65 M 4168.54 3220.65 L 4164.25 3220.65 M 4168.54 3222 L 4164.25 3222 M 4168.54 3222 L 4164.25 3224.86 M 4168.54 3224.86 L 4164.25 3224.86 M 4168.54 3227.85 L 4164.25 3226.21 M 4168.54 3227.85 L 4164.25 3229.48 M 4165.68 3226.82 L 4165.68 3228.87" fill="none"  stroke-width="0.6" c_note="note_name" /></g><g c_partid="part_pcbtext" c_etype="" c_origin="4157,3147.5" c_rotation="270" c_mirror="" id="gge15" locked="0" layerid="3" c_shapetype="group" ><path c_fontsize="4.5" c_fontfamily="" c_text="1" d="M 4160.72 3147.5 L 4160.93 3147.91 L 4161.54 3148.52 L 4157.25 3148.52" fill="none"  stroke-width="0.6" c_note="note_pre" /></g><g c_partid="part_pcbtext" c_etype="" c_origin="4195.5,3149.5" c_rotation="0" c_mirror="" id="gge180" locked="0" layerid="3" c_shapetype="group" display="none"><path c_fontsize="4.5" c_fontfamily="" c_text="220nF" d="M 4195.7 3145.98 L 4195.7 3145.78 L 4195.91 3145.37 L 4196.11 3145.16 L 4196.52 3144.96 L 4197.34 3144.96 L 4197.75 3145.16 L 4197.95 3145.37 L 4198.16 3145.78 L 4198.16 3146.19 L 4197.95 3146.6 L 4197.55 3147.21 L 4195.5 3149.25 L 4198.36 3149.25 M 4199.92 3145.98 L 4199.92 3145.78 L 4200.12 3145.37 L 4200.33 3145.16 L 4200.74 3144.96 L 4201.55 3144.96 L 4201.96 3145.16 L 4202.17 3145.37 L 4202.37 3145.78 L 4202.37 3146.19 L 4202.17 3146.6 L 4201.76 3147.21 L 4199.71 3149.25 L 4202.58 3149.25 M 4205.15 3144.96 L 4204.54 3145.16 L 4204.13 3145.78 L 4203.93 3146.8 L 4203.93 3147.41 L 4204.13 3148.44 L 4204.54 3149.05 L 4205.15 3149.25 L 4205.56 3149.25 L 4206.18 3149.05 L 4206.59 3148.44 L 4206.79 3147.41 L 4206.79 3146.8 L 4206.59 3145.78 L 4206.18 3145.16 L 4205.56 3144.96 L 4205.15 3144.96 M 4208.14 3146.39 L 4208.14 3149.25 M 4208.14 3147.21 L 4208.75 3146.6 L 4209.16 3146.39 L 4209.78 3146.39 L 4210.19 3146.6 L 4210.39 3147.21 L 4210.39 3149.25 M 4211.74 3144.96 L 4211.74 3149.25 M 4211.74 3144.96 L 4214.4 3144.96 M 4211.74 3147 L 4213.38 3147" fill="none"  stroke-width="0.6" c_note="note_name" /></g><g c_partid="part_pcbtext" c_etype="" c_origin="4195.5,3156.5" c_rotation="0" c_mirror="" id="gge186" locked="0" layerid="3" c_shapetype="group" ><path c_fontsize="4.5" c_fontfamily="" c_text="C1" d="M 4198.57 3152.98 L 4198.36 3152.57 L 4197.95 3152.16 L 4197.55 3151.96 L 4196.73 3151.96 L 4196.32 3152.16 L 4195.91 3152.57 L 4195.7 3152.98 L 4195.5 3153.6 L 4195.5 3154.62 L 4195.7 3155.23 L 4195.91 3155.64 L 4196.32 3156.05 L 4196.73 3156.25 L 4197.55 3156.25 L 4197.95 3156.05 L 4198.36 3155.64 L 4198.57 3155.23 M 4199.92 3152.78 L 4200.33 3152.57 L 4200.94 3151.96 L 4200.94 3156.25" fill="none"  stroke-width="0.6" c_note="note_pre" /></g><g c_partid="part_pcbtext" c_etype="" c_origin="4377.065,3223.005" c_rotation="0" c_mirror="" id="gge276" locked="0" layerid="3" c_shapetype="group" display="none"><path c_fontsize="4.5" c_fontfamily="" c_text="17-21SUYC/TR8" d="M 4377.065 3219.285 L 4377.475 3219.075 L 4378.085 3218.465 L 4378.085 3222.755 M 4382.305 3218.465 L 4380.255 3222.755 M 4379.435 3218.465 L 4382.305 3218.465 M 4383.655 3220.915 L 4387.335 3220.915 M 4388.885 3219.485 L 4388.885 3219.285 L 4389.095 3218.875 L 4389.295 3218.665 L 4389.705 3218.465 L 4390.525 3218.465 L 4390.935 3218.665 L 4391.135 3218.875 L 4391.345 3219.285 L 4391.345 3219.695 L 4391.135 3220.105 L 4390.725 3220.715 L 4388.685 3222.755 L 4391.545 3222.755 M 4392.895 3219.285 L 4393.305 3219.075 L 4393.915 3218.465 L 4393.915 3222.755 M 4398.135 3219.075 L 4397.725 3218.665 L 4397.115 3218.465 L 4396.295 3218.465 L 4395.675 3218.665 L 4395.265 3219.075 L 4395.265 3219.485 L 4395.475 3219.895 L 4395.675 3220.105 L 4396.085 3220.305 L 4397.315 3220.715 L 4397.725 3220.915 L 4397.925 3221.125 L 4398.135 3221.535 L 4398.135 3222.145 L 4397.725 3222.555 L 4397.115 3222.755 L 4396.295 3222.755 L 4395.675 3222.555 L 4395.265 3222.145 M 4399.485 3218.465 L 4399.485 3221.535 L 4399.685 3222.145 L 4400.095 3222.555 L 4400.715 3222.755 L 4401.115 3222.755 L 4401.735 3222.555 L 4402.145 3222.145 L 4402.345 3221.535 L 4402.345 3218.465 M 4403.695 3218.465 L 4405.335 3220.505 L 4405.335 3222.755 M 4406.965 3218.465 L 4405.335 3220.505 M 4411.385 3219.485 L 4411.185 3219.075 L 4410.775 3218.665 L 4410.365 3218.465 L 4409.545 3218.465 L 4409.135 3218.665 L 4408.725 3219.075 L 4408.525 3219.485 L 4408.315 3220.105 L 4408.315 3221.125 L 4408.525 3221.735 L 4408.725 3222.145 L 4409.135 3222.555 L 4409.545 3222.755 L 4410.365 3222.755 L 4410.775 3222.555 L 4411.185 3222.145 L 4411.385 3221.735 M 4416.415 3217.645 L 4412.735 3224.195 M 4419.205 3218.465 L 4419.205 3222.755 M 4417.765 3218.465 L 4420.635 3218.465 M 4421.985 3218.465 L 4421.985 3222.755 M 4421.985 3218.465 L 4423.825 3218.465 L 4424.435 3218.665 L 4424.645 3218.875 L 4424.845 3219.285 L 4424.845 3219.695 L 4424.645 3220.105 L 4424.435 3220.305 L 4423.825 3220.505 L 4421.985 3220.505 M 4423.415 3220.505 L 4424.845 3222.755 M 4427.215 3218.465 L 4426.605 3218.665 L 4426.405 3219.075 L 4426.405 3219.485 L 4426.605 3219.895 L 4427.015 3220.105 L 4427.835 3220.305 L 4428.445 3220.505 L 4428.855 3220.915 L 4429.065 3221.325 L 4429.065 3221.945 L 4428.855 3222.355 L 4428.655 3222.555 L 4428.035 3222.755 L 4427.215 3222.755 L 4426.605 3222.555 L 4426.405 3222.355 L 4426.195 3221.945 L 4426.195 3221.325 L 4426.405 3220.915 L 4426.815 3220.505 L 4427.425 3220.305 L 4428.245 3220.105 L 4428.655 3219.895 L 4428.855 3219.485 L 4428.855 3219.075 L 4428.655 3218.665 L 4428.035 3218.465 L 4427.215 3218.465" fill="none"  stroke-width="0.6" c_note="note_name" /></g><g c_partid="part_pcbtext" c_etype="" c_origin="4377.065,3230.005" c_rotation="0" c_mirror="" id="gge282" locked="0" layerid="3" c_shapetype="group" ><path c_fontsize="4.5" c_fontfamily="" c_text="LED1" d="M 4377.065 3225.465 L 4377.065 3229.755 M 4377.065 3229.755 L 4379.515 3229.755 M 4380.865 3225.465 L 4380.865 3229.755 M 4380.865 3225.465 L 4383.525 3225.465 M 4380.865 3227.505 L 4382.505 3227.505 M 4380.865 3229.755 L 4383.525 3229.755 M 4384.875 3225.465 L 4384.875 3229.755 M 4384.875 3225.465 L 4386.315 3225.465 L 4386.925 3225.665 L 4387.335 3226.075 L 4387.535 3226.485 L 4387.745 3227.105 L 4387.745 3228.125 L 4387.535 3228.735 L 4387.335 3229.145 L 4386.925 3229.555 L 4386.315 3229.755 L 4384.875 3229.755 M 4389.095 3226.285 L 4389.505 3226.075 L 4390.115 3225.465 L 4390.115 3229.755" fill="none"  stroke-width="0.6" c_note="note_pre" /></g><g c_partid="part_pcbtext" c_etype="" c_origin="4179.0469,3158.46" c_rotation="0" c_mirror="" id="gge663" locked="0" layerid="3" c_shapetype="group" display="none"><path c_fontsize="4.5" c_fontfamily="NotoSerifCJKsc-Medium" c_text="47Ω" d="M 4179.3869 3157.29 L 4180.3569 3155.9 L 4180.3569 3157.29 Z  M 4181.1669 3157.29 L 4180.7069 3157.29 L 4180.7069 3155.48 L 4180.4669 3155.48 L 4179.1669 3157.34 L 4179.1669 3157.55 L 4180.3569 3157.55 L 4180.3569 3158.46 L 4180.7069 3158.46 L 4180.7069 3157.55 L 4181.1669 3157.55 Z  M 4181.4669 3155.53 L 4181.4669 3155.87 L 4182.9969 3155.87 L 4181.8269 3158.42 L 4181.8669 3158.46 L 4182.2069 3158.46 L 4183.2469 3155.74 L 4183.2469 3155.53 Z  M 4186.2369 3157.72 L 4186.1369 3158.15 L 4185.5169 3158.15 L 4185.5169 3158.15 C 4185.9669 3157.83 4186.3269 3157.36 4186.3269 3156.79 C 4186.3269 3155.93 4185.7169 3155.46 4185.0469 3155.46 C 4184.3569 3155.46 4183.7569 3155.93 4183.7569 3156.79 C 4183.7569 3157.36 4184.1169 3157.83 4184.5669 3158.15 L 4184.5669 3158.15 L 4183.9469 3158.15 L 4183.8469 3157.72 L 4183.6169 3157.72 L 4183.6569 3158.46 L 4184.8269 3158.46 L 4184.8269 3158.19 C 4184.4269 3157.86 4184.1669 3157.34 4184.1669 3156.79 C 4184.1669 3156.14 4184.4869 3155.65 4185.0469 3155.65 C 4185.5869 3155.65 4185.9169 3156.14 4185.9169 3156.79 C 4185.9169 3157.34 4185.6569 3157.86 4185.2469 3158.19 L 4185.2469 3158.46 L 4186.4269 3158.46 L 4186.4669 3157.72 Z "  stroke="none" stroke-width="0.6" c_note="note_name" /></g><g c_partid="part_pcbtext" c_etype="" c_origin="4179.5,3171" c_rotation="0" c_mirror="" id="gge360" locked="0" layerid="3" c_shapetype="group" ><path c_fontsize="4.5" c_fontfamily="" c_text="R1" d="M 4179.5 3166.46 L 4179.5 3170.75 M 4179.5 3166.46 L 4181.34 3166.46 L 4181.95 3166.66 L 4182.16 3166.87 L 4182.36 3167.28 L 4182.36 3167.69 L 4182.16 3168.1 L 4181.95 3168.3 L 4181.34 3168.5 L 4179.5 3168.5 M 4180.93 3168.5 L 4182.36 3170.75 M 4183.71 3167.28 L 4184.12 3167.07 L 4184.74 3166.46 L 4184.74 3170.75" fill="none"  stroke-width="0.6" c_note="note_pre" /></g><g c_partid="part_pcbtext" c_etype="" c_origin="4168.3441,3147.7942" c_rotation="0" c_mirror="" id="gge426" locked="0" layerid="3" c_shapetype="group" display="none"><path c_fontsize="4.5" c_fontfamily="" c_text="NT3H2111W0FHKH" d="M 4168.3441 3143.2542 L 4168.3441 3147.5442 M 4168.3441 3143.2542 L 4171.2041 3147.5442 M 4171.2041 3143.2542 L 4171.2041 3147.5442 M 4173.9941 3143.2542 L 4173.9941 3147.5442 M 4172.5541 3143.2542 L 4175.4241 3143.2542 M 4177.1841 3143.2542 L 4179.4341 3143.2542 L 4178.2041 3144.8942 L 4178.8141 3144.8942 L 4179.2241 3145.0942 L 4179.4341 3145.2942 L 4179.6341 3145.9142 L 4179.6341 3146.3242 L 4179.4341 3146.9342 L 4179.0241 3147.3442 L 4178.4041 3147.5442 L 4177.7941 3147.5442 L 4177.1841 3147.3442 L 4176.9741 3147.1442 L 4176.7741 3146.7342 M 4180.9841 3143.2542 L 4180.9841 3147.5442 M 4183.8441 3143.2542 L 4183.8441 3147.5442 M 4180.9841 3145.2942 L 4183.8441 3145.2942 M 4185.4041 3144.2742 L 4185.4041 3144.0742 L 4185.6041 3143.6642 L 4185.8141 3143.4542 L 4186.2241 3143.2542 L 4187.0441 3143.2542 L 4187.4441 3143.4542 L 4187.6541 3143.6642 L 4187.8541 3144.0742 L 4187.8541 3144.4842 L 4187.6541 3144.8942 L 4187.2441 3145.5042 L 4185.1941 3147.5442 L 4188.0641 3147.5442 M 4189.4141 3144.0742 L 4189.8241 3143.8642 L 4190.4341 3143.2542 L 4190.4341 3147.5442 M 4191.7841 3144.0742 L 4192.1941 3143.8642 L 4192.8041 3143.2542 L 4192.8041 3147.5442 M 4194.1541 3144.0742 L 4194.5641 3143.8642 L 4195.1841 3143.2542 L 4195.1841 3147.5442 M 4196.5341 3143.2542 L 4197.5541 3147.5442 M 4198.5741 3143.2542 L 4197.5541 3147.5442 M 4198.5741 3143.2542 L 4199.5941 3147.5442 M 4200.6241 3143.2542 L 4199.5941 3147.5442 M 4203.1941 3143.2542 L 4202.5841 3143.4542 L 4202.1741 3144.0742 L 4201.9741 3145.0942 L 4201.9741 3145.7042 L 4202.1741 3146.7342 L 4202.5841 3147.3442 L 4203.1941 3147.5442 L 4203.6041 3147.5442 L 4204.2241 3147.3442 L 4204.6341 3146.7342 L 4204.8341 3145.7042 L 4204.8341 3145.0942 L 4204.6341 3144.0742 L 4204.2241 3143.4542 L 4203.6041 3143.2542 L 4203.1941 3143.2542 M 4206.1841 3143.2542 L 4206.1841 3147.5442 M 4206.1841 3143.2542 L 4208.8441 3143.2542 M 4206.1841 3145.2942 L 4207.8241 3145.2942 M 4210.1941 3143.2542 L 4210.1941 3147.5442 M 4213.0541 3143.2542 L 4213.0541 3147.5442 M 4210.1941 3145.2942 L 4213.0541 3145.2942 M 4214.4041 3143.2542 L 4214.4041 3147.5442 M 4217.2741 3143.2542 L 4214.4041 3146.1142 M 4215.4341 3145.0942 L 4217.2741 3147.5442 M 4218.6241 3143.2542 L 4218.6241 3147.5442 M 4221.4841 3143.2542 L 4221.4841 3147.5442 M 4218.6241 3145.2942 L 4221.4841 3145.2942" fill="none"  stroke-width="0.6" c_note="note_name" /></g><g c_partid="part_pcbtext" c_etype="" c_origin="4168.3441,3154.7942" c_rotation="0" c_mirror="" id="gge432" locked="0" layerid="3" c_shapetype="group" ><path c_fontsize="4.5" c_fontfamily="" c_text="U1" d="M 4168.3441 3150.2542 L 4168.3441 3153.3242 L 4168.5441 3153.9342 L 4168.9541 3154.3442 L 4169.5741 3154.5442 L 4169.9841 3154.5442 L 4170.5941 3154.3442 L 4171.0041 3153.9342 L 4171.2041 3153.3242 L 4171.2041 3150.2542 M 4172.5541 3151.0742 L 4172.9641 3150.8642 L 4173.5841 3150.2542 L 4173.5841 3154.5442" fill="none"  stroke-width="0.6" c_note="note_pre" /></g><path d="M 4190.9665 3158.9031 A 1.2198 1.2198 0 0 1 4192.1863 3157.6833" locked="0"  fill="none" stroke-width="1" c_helper_type="arc2" net="" layerid="3" id="gge219" /><path d="M 4192.1863 3163.2725 A 1.2198 1.2198 0 0 1 4190.9665 3162.0526" locked="0"  fill="none" stroke-width="1" c_helper_type="arc2" net="" layerid="3" id="gge222" /><path d="M 4200.7527 3157.7062 A 1.2198 1.2198 0 0 1 4201.9725 3158.9261" locked="0"  fill="none" stroke-width="1" c_helper_type="arc2" net="" layerid="3" id="gge225" /><path d="M 4201.9725 3162.0756 A 1.2198 1.2198 0 0 1 4200.7527 3163.2954" locked="0"  fill="none" stroke-width="1" c_helper_type="arc2" net="" layerid="3" id="gge228" /><circle cx="4167.0011" cy="3165.5002" r="0.25" stroke-width="1" fill="none" layerid="3" id="gge492" locked="0"  /><polyline points="4047.559 3231.8506 4047.559 3063.347" stroke-width="1"  stroke-linecap="round" fill="none" layerid="10" net="" id="gge684" locked="0" /><polyline points="4381.8103 3247.5986 4063.307 3247.5986" stroke-width="1"  stroke-linecap="round" fill="none" layerid="10" net="" id="gge678" locked="0" /><polyline points="4397.5583 3063.347 4397.5583 3231.8506" stroke-width="1"  stroke-linecap="round" fill="none" layerid="10" net="" id="gge672" locked="0" /><polyline points="4063.307 3047.599 4381.8103 3047.599" stroke-width="1"  stroke-linecap="round" fill="none" layerid="10" net="" id="gge666" locked="0" /><path d="M4381.8103 3047.599A15.748 15.748 0 0 1 4397.5583 3063.347" locked="0"  fill="none" stroke-width="1" c_helper_type="arc2" net="" layerid="10" id="gge669" /><path d="M4397.5583 3231.8506A15.748 15.748 0 0 1 4381.8103 3247.5986" locked="0"  fill="none" stroke-width="1" c_helper_type="arc2" net="" layerid="10" id="gge675" /><path d="M4063.307 3247.5986A15.748 15.748 0 0 1 4047.559 3231.8506" locked="0"  fill="none" stroke-width="1" c_helper_type="arc2" net="" layerid="10" id="gge681" /><path d="M4047.559 3063.347A15.748 15.748 0 0 1 4063.307 3047.599" locked="0"  fill="none" stroke-width="1" c_helper_type="arc2" net="" layerid="10" id="gge687" /></svg>