<svg xmlns="http://www.w3.org/2000/svg" xmlns:xlink="http://www.w3.org/1999/xlink" width="79.477mm" height="58.826mm" viewBox="4037.1 3037.6 312.9 231.6"><title></title><style type="text/css">
*[layerid="1"] {stroke:#000000;fill:#000000;}
*[layerid="2"] {stroke:#000000;fill:#000000;}
*[layerid="3"] {stroke:#000000;fill:#000000;}
*[layerid="4"] {stroke:#000000;fill:#000000;}
*[layerid="5"] {stroke:#000000;fill:#000000;}
*[layerid="6"] {stroke:#000000;fill:#000000;}
*[layerid="7"] {stroke:#000000;fill:#000000;}
*[layerid="8"] {stroke:#000000;fill:#000000;}
*[layerid="9"] {stroke:#000000;fill:#000000;}
*[layerid="10"] {stroke:#000000;fill:#000000;}
*[layerid="11"] {stroke:#000000;fill:#000000;}
*[layerid="12"] {stroke:#000000;fill:#000000;}
*[layerid="13"] {stroke:#000000;fill:#000000;}
*[layerid="14"] {stroke:#000000;fill:#000000;}
*[layerid="15"] {stroke:#000000;fill:#000000;}
*[layerid="19"] {stroke:#000000;fill:#000000;}
*[layerid="21"] {stroke:#000000;fill:#000000;}
*[layerid="22"] {stroke:#000000;fill:#000000;}
*[layerid="23"] {stroke:#000000;fill:#000000;}
*[layerid="24"] {stroke:#000000;fill:#000000;}
*[layerid="25"] {stroke:#000000;fill:#000000;}
*[layerid="26"] {stroke:#000000;fill:#000000;}
*[layerid="27"] {stroke:#000000;fill:#000000;}
*[layerid="28"] {stroke:#000000;fill:#000000;}
*[layerid="29"] {stroke:#000000;fill:#000000;}
*[layerid="30"] {stroke:#000000;fill:#000000;}
*[layerid="31"] {stroke:#000000;fill:#000000;}
*[layerid="32"] {stroke:#000000;fill:#000000;}
*[layerid="33"] {stroke:#000000;fill:#000000;}
*[layerid="34"] {stroke:#000000;fill:#000000;}
*[layerid="35"] {stroke:#000000;fill:#000000;}
*[layerid="36"] {stroke:#000000;fill:#000000;}
*[layerid="37"] {stroke:#000000;fill:#000000;}
*[layerid="38"] {stroke:#000000;fill:#000000;}
*[layerid="39"] {stroke:#000000;fill:#000000;}
*[layerid="40"] {stroke:#000000;fill:#000000;}
*[layerid="41"] {stroke:#000000;fill:#000000;}
*[layerid="42"] {stroke:#000000;fill:#000000;}
*[layerid="43"] {stroke:#000000;fill:#000000;}
*[layerid="44"] {stroke:#000000;fill:#000000;}
*[layerid="45"] {stroke:#000000;fill:#000000;}
*[layerid="46"] {stroke:#000000;fill:#000000;}
*[layerid="47"] {stroke:#000000;fill:#000000;}
*[layerid="48"] {stroke:#000000;fill:#000000;}
*[layerid="49"] {stroke:#000000;fill:#000000;}
*[layerid="50"] {stroke:#000000;fill:#000000;}
*[layerid="51"] {stroke:#000000;fill:#000000;}
*[layerid="52"] {stroke:#000000;fill:#000000;}
*[layerid="99"] {stroke:#000000;fill:#000000;}
*[layerid="100"] {stroke:#000000;fill:#000000;}
*[layerid="101"] {stroke:#000000;fill:#000000;}
*[layerid="Hole"] {stroke:#000000;fill:#000000;}
*[layerid="DRCError"] {stroke:#000000;fill:#000000;}
*[fill="none"] {fill: none;}
*[stroke="none"] {stroke: none;}
path, polyline, polygon, line {stroke-linecap:round;}
g[c_partid="part_pad"][layerid="1"] ellipse:not([c_etype="pad_outer"]) {fill:#000000;}
g[c_partid="part_pad"][layerid="1"] polygon:not([c_etype="pad_outer"]) {fill:#000000;}
g[c_partid="part_pad"][layerid="1"] polyline:not([c_etype="pad_outer"]) {stroke:#000000;}
g[c_partid="part_pad"][layerid="2"] ellipse:not([c_etype="pad_outer"]) {fill:#000000;}
g[c_partid="part_pad"][layerid="2"] polygon:not([c_etype="pad_outer"]) {fill:#000000;}
g[c_partid="part_pad"][layerid="2"] polyline:not([c_etype="pad_outer"]) {stroke:#000000;}
g[c_partid="part_pad"][layerid="11"] ellipse:not([c_etype="pad_outer"]) {fill:#000000;}
g[c_partid="part_pad"][layerid="11"] polygon:not([c_etype="pad_outer"]) {fill:#000000;}
g[c_partid="part_pad"][layerid="11"] polyline:not([c_etype="pad_outer"]) {stroke:#000000;}
g[c_partid="part_pad"][layerid="11"] circle {fill:#FFFFFF;}
g[c_partid="part_pad"][layerid="11"] > polyline:nth-of-type(2) {stroke:#FFFFFF;}
g[c_partid="part_pad"][layerid="11"][c_shape="ELLIPSE"]  polyline:nth-last-of-type(1) {stroke:#FFFFFF;}
g[c_partid="part_pad"][layerid="11"][c_shape="RECT"]  polyline:nth-last-of-type(1) {stroke:#FFFFFF;}
g[c_partid="part_pad"][layerid="11"][c_shape="POLYGON"]  polyline:nth-last-of-type(1) {stroke:#FFFFFF;}
g[c_partid="part_via"] > * + circle, #gCurParts g[c_partid="part_via"] > * + circle {fill:#FFFFFF;}
g[c_partid="part_pad"] > polygon[c_etype="pad_outer"], #gCurParts g[c_partid="part_pad"] > polygon[c_etype="pad_outer"] {stroke-linejoin: round;stroke-miterlimit: 100;}
g[c_partid="part_hole"] > circle {fill: #FFFFFF;}path, polyline, polygon {stroke-linejoin:round;}
rect, circle, ellipse, polyline, line, polygon, path {shape-rendering:crispEdges;}
</style>
<rect x="4037.1" y="3037.6" width="312.9" height="231.6" fill="#FFFFFF" stroke="none"/><polyline points="4124.1911 3075.5001 4133.3101 3075.5001 4135.6781 3073.1321 4174.9071 3073.1321" stroke-width="3.1496"  stroke-linecap="round" fill="none" layerid="1" net="+5V" id="gge2292" locked="0" /><polyline points="4181.9 3121.24 4185 3118.13 4185 3083.22 4174.91 3073.13" stroke-width="3.1496"  stroke-linecap="round" fill="none" layerid="1" net="+5V" id="gge2280" locked="0" /><polyline points="4174.9071 3073.1321 4177.4231 3070.6161" stroke-width="3.1496"  stroke-linecap="round" fill="none" layerid="1" net="+5V" id="gge2304" locked="0" /><polyline points="4262.0631 3071.5621 4256.4021 3065.9011 4156.8061 3065.9011 4153.8941 3062.9891 4126.7021 3062.9891 4124.1911 3065.5001" stroke-width="1"  stroke-linecap="round" fill="none" layerid="1" net="U1_9" id="gge2352" locked="0" /><polyline points="4262.0631 3061.7201 4182.9141 3061.7201 4182.5771 3061.3831" stroke-width="1"  stroke-linecap="round" fill="none" layerid="1" net="D1_2" id="gge2349" locked="0" /><polyline points="4180.0001 3061.3831 4182.5771 3061.3831" stroke-width="1"  stroke-linecap="round" fill="none" layerid="1" net="D1_2" id="gge2346" locked="0" /><polyline points="4176.1271 3089.8071 4174.3201 3088.0001 4126.6911 3088.0001 4124.1911 3085.5001" stroke-width="1"  stroke-linecap="round" fill="none" layerid="1" net="U1_13" id="gge2343" locked="0" /><polyline points="4179.0001 3089.8071 4176.1271 3089.8071" stroke-width="1"  stroke-linecap="round" fill="none" layerid="1" net="U1_13" id="gge2340" locked="0" /><polyline points="4124.1911 3090.5001 4133.6211 3090.5001 4141.1211 3098.0001 4167.1931 3098.0001 4176.3241 3107.1311 4179.0001 3107.1311" stroke-width="1"  stroke-linecap="round" fill="none" layerid="1" net="U1_14" id="gge2337" locked="0" /><polyline points="4179.0001 3109.8071 4179.0001 3107.1311" stroke-width="1"  stroke-linecap="round" fill="none" layerid="1" net="U1_14" id="gge2334" locked="0" /><polyline points="4131.1191 3209.1651 4126.9441 3213.3401 4073.4711 3213.3401 4070.3211 3210.1901 4070.3211 3209.1651" stroke-width="1"  stroke-linecap="round" fill="none" layerid="1" net="+5V" id="gge2328" locked="0" /><polyline points="4066.2201 3209.1651 4070.3211 3209.1651" stroke-width="1"  stroke-linecap="round" fill="none" layerid="1" net="+5V" id="gge2325" locked="0" /><polyline points="4135.2201 3209.1651 4133.1701 3209.1651" stroke-width="1"  stroke-linecap="round" fill="none" layerid="1" net="+5V" id="gge2322" locked="0" /><polyline points="4133.1701 3209.1651 4131.1191 3209.1651" stroke-width="1"  stroke-linecap="round" fill="none" layerid="1" net="+5V" id="gge2319" locked="0" /><polyline points="4180.0001 3070.6161 4177.4231 3070.6161" stroke-width="1"  stroke-linecap="round" fill="none" layerid="1" net="+5V" id="gge2316" locked="0" /><polyline points="4179.0001 3146.9711 4176.3241 3146.9711 4176.1221 3147.1731 4176.1221 3169.8071" stroke-width="1"  stroke-linecap="round" fill="none" layerid="1" net="+5V" id="gge2313" locked="0" /><polyline points="4133.1701 3209.1651 4172.5281 3169.8071 4176.1221 3169.8071" stroke-width="1"  stroke-linecap="round" fill="none" layerid="1" net="+5V" id="gge2310" locked="0" /><polyline points="4176.1221 3169.8071 4179.0001 3169.8071" stroke-width="1"  stroke-linecap="round" fill="none" layerid="1" net="+5V" id="gge2307" locked="0" /><polyline points="4179.0001 3145.6331 4179.0001 3146.9711" stroke-width="1"  stroke-linecap="round" fill="none" layerid="1" net="+5V" id="gge2301" locked="0" /><polyline points="4179.0001 3145.6331 4179.0001 3144.2951" stroke-width="1"  stroke-linecap="round" fill="none" layerid="1" net="+5V" id="gge2298" locked="0" /><polyline points="4179.0001 3124.2951 4179.0001 3121.6191" stroke-width="1"  stroke-linecap="round" fill="none" layerid="1" net="+5V" id="gge2295" locked="0" /><polyline points="4181.8961 3121.2361 4179.3831 3121.2361 4179.0001 3121.6191" stroke-width="1"  stroke-linecap="round" fill="none" layerid="1" net="+5V" id="gge2283" locked="0" /><polyline points="4121.4411 3219.8341 4107.5591 3219.8341" stroke-width="1"  stroke-linecap="round" fill="none" layerid="1" net="GND" id="gge2271" locked="0" /><polyline points="4107.5591 3219.8341 4052.4411 3219.8341" stroke-width="1"  stroke-linecap="round" fill="none" layerid="1" net="GND" id="gge2268" locked="0" /><polyline points="4121.4411 3219.8341 4152.1101 3219.8341 4162.7791 3209.1651" stroke-width="1"  stroke-linecap="round" fill="none" layerid="1" net="GND" id="gge2265" locked="0" /><polyline points="4162.7791 3209.1651 4181.8781 3190.0661 4181.8781 3167.1731 4181.6761 3166.9711 4179.0001 3166.9711" stroke-width="1"  stroke-linecap="round" fill="none" layerid="1" net="GND" id="gge2262" locked="0" /><polyline points="4179.0001 3164.2951 4179.0001 3166.9711" stroke-width="1"  stroke-linecap="round" fill="none" layerid="1" net="GND" id="gge2259" locked="0" /><polyline points="4179.0001 3084.2951 4179.0001 3086.9711" stroke-width="1"  stroke-linecap="round" fill="none" layerid="1" net="GND" id="gge2244" locked="0" /><polyline points="4179.0001 3086.9711 4181.7201 3086.9711 4182.0111 3087.2621 4182.0111 3098.6081 4179.0001 3101.6191" stroke-width="1"  stroke-linecap="round" fill="none" layerid="1" net="GND" id="gge2241" locked="0" /><polyline points="4179.0001 3104.2951 4179.0001 3101.6191" stroke-width="1"  stroke-linecap="round" fill="none" layerid="1" net="GND" id="gge2238" locked="0" /><polyline points="4179.0001 3149.8071 4179.0001 3164.2951" stroke-width="1"  stroke-linecap="round" fill="none" layerid="1" net="GND" id="gge2235" locked="0" /><polyline points="4179.0001 3149.8071 4181.8821 3146.9251 4181.8821 3135.3651 4179.0001 3132.4831" stroke-width="1"  stroke-linecap="round" fill="none" layerid="1" net="GND" id="gge2232" locked="0" /><polyline points="4179.0001 3131.1451 4179.0001 3132.4831" stroke-width="1"  stroke-linecap="round" fill="none" layerid="1" net="GND" id="gge2229" locked="0" /><polyline points="4179.0001 3131.1451 4179.0001 3129.8071" stroke-width="1"  stroke-linecap="round" fill="none" layerid="1" net="GND" id="gge2226" locked="0" /><polyline points="4269.9371 3098.3341 4263.3241 3098.3341" stroke-width="1"  stroke-linecap="round" fill="none" layerid="1" net="GND" id="gge2223" locked="0" /><polyline points="4179.0001 3127.1311 4234.5271 3127.1311 4263.3241 3098.3341" stroke-width="1"  stroke-linecap="round" fill="none" layerid="1" net="GND" id="gge2220" locked="0" /><polyline points="4124.1911 3080.5001 4074.7711 3080.5001 4073.3961 3081.8751 4073.3961 3084.4021 4089.4941 3100.5001 4124.1911 3100.5001" stroke-width="1"  stroke-linecap="round" fill="none" layerid="1" net="GND" id="gge2217" locked="0" /><polyline points="4179.0001 3084.2951 4179.0001 3081.6191" stroke-width="1"  stroke-linecap="round" fill="none" layerid="1" net="GND" id="gge2214" locked="0" /><polyline points="4124.1911 3080.5001 4126.7131 3077.9781 4175.3591 3077.9781 4179.0001 3081.6191" stroke-width="1"  stroke-linecap="round" fill="none" layerid="1" net="GND" id="gge2211" locked="0" /><polyline points="4179.0001 3128.4691 4179.0001 3128.4501" stroke-width="1"  stroke-linecap="round" fill="none" layerid="1" net="GND" id="gge2208" locked="0" /><polyline points="4179.0001 3129.8071 4179.0001 3128.4691" stroke-width="1"  stroke-linecap="round" fill="none" layerid="1" net="GND" id="gge2205" locked="0" /><polyline points="4179.0001 3128.4501 4179.0001 3127.1311" stroke-width="1"  stroke-linecap="round" fill="none" layerid="1" net="GND" id="gge2202" locked="0" /><polyline points="4179.0001 3128.4501 4178.2451 3128.4501 4176.0211 3126.2261 4176.0211 3120.9031 4181.8781 3115.0461 4181.8781 3107.1731 4179.0001 3104.2951" stroke-width="1"  stroke-linecap="round" fill="none" layerid="1" net="GND" id="gge2199" locked="0" /><polyline points="4262.0631 3079.4361 4250.1341 3067.5071 4166.3571 3067.5071 4165.9501 3067.9141 4126.7771 3067.9141 4124.1911 3070.5001" stroke-width="1"  stroke-linecap="round" fill="none" layerid="1" net="U1_10" id="gge2196" locked="0" /><polyline points="4146.8091 3065.5001 4152.9371 3065.5001" stroke-width="1"  stroke-linecap="round" fill="none" layerid="1" net="U1_8" id="gge2187" locked="0" /><polyline points="4134.4521 3071.0971 4146.2121 3071.0971 4146.8091 3070.5001" stroke-width="1"  stroke-linecap="round" fill="none" layerid="1" net="U1_7" id="gge2178" locked="0" /><polyline points="4137.7481 3075.6721 4146.6371 3075.6721 4146.8091 3075.5001" stroke-width="1"  stroke-linecap="round" fill="none" layerid="1" net="USB2_3" id="gge2169" locked="0" /><polyline points="4131.2721 3084.2741 4135.0461 3080.5001 4146.8091 3080.5001" stroke-width="1"  stroke-linecap="round" fill="none" layerid="1" net="USB2_2" id="gge2160" locked="0" /><g c_partid="part_pad" c_etype="pinpart" c_origin="4179,3164.2952" layerid="1" number="2" net="GND" plated ="Y"  id="gge69" locked="0" c_rotation="90" c_width="3.1496" c_height="3.5433" title="GND" c_shape="RECT" pasteexpansion="0.0000" solderexpansion="0.2000"><polygon  c_etype="pad_shell" points="4177.2283 3165.8701 4177.2283 3162.7205 4180.7717 3162.7205 4180.7717 3165.8701" layerid="1" stroke-width="0" /><circle c_etype="pad_hole" cx="4179" cy="3164.2957" r="0" layerid="1" stroke-width="0"/></g><g c_partid="part_pad" c_etype="pinpart" c_origin="4179,3169.8072" layerid="1" number="1" net="+5V" plated ="Y"  id="gge84" locked="0" c_rotation="90" c_width="3.1496" c_height="3.5433" title="+5V" c_shape="RECT" pasteexpansion="0.0000" solderexpansion="0.2000"><polygon  c_etype="pad_shell" points="4177.2283 3171.3819 4177.2283 3168.2323 4180.7717 3168.2323 4180.7717 3171.3819" layerid="1" stroke-width="0" /><circle c_etype="pad_hole" cx="4179" cy="3169.8067" r="0" layerid="1" stroke-width="0"/></g><g c_partid="part_pad" c_etype="pinpart" c_origin="4179,3144.2952" layerid="1" number="2" net="+5V" plated ="Y"  id="gge165" locked="0" c_rotation="90" c_width="3.1496" c_height="3.5433" title="+5V" c_shape="RECT" pasteexpansion="0.0000" solderexpansion="0.2000"><polygon  c_etype="pad_shell" points="4177.2283 3145.8701 4177.2283 3142.7205 4180.7717 3142.7205 4180.7717 3145.8701" layerid="1" stroke-width="0" /><circle c_etype="pad_hole" cx="4179" cy="3144.2957" r="0" layerid="1" stroke-width="0"/></g><g c_partid="part_pad" c_etype="pinpart" c_origin="4179,3149.8072" layerid="1" number="1" net="GND" plated ="Y"  id="gge180" locked="0" c_rotation="90" c_width="3.1496" c_height="3.5433" title="GND" c_shape="RECT" pasteexpansion="0.0000" solderexpansion="0.2000"><polygon  c_etype="pad_shell" points="4177.2283 3151.3819 4177.2283 3148.2323 4180.7717 3148.2323 4180.7717 3151.3819" layerid="1" stroke-width="0" /><circle c_etype="pad_hole" cx="4179" cy="3149.8067" r="0" layerid="1" stroke-width="0"/></g><g c_partid="part_pad" c_etype="pinpart" c_origin="4179,3124.2952" layerid="1" number="2" net="+5V" plated ="Y"  id="gge261" locked="0" c_rotation="90" c_width="3.1496" c_height="3.5433" title="+5V" c_shape="RECT" pasteexpansion="0.0000" solderexpansion="0.2000"><polygon  c_etype="pad_shell" points="4177.2283 3125.8701 4177.2283 3122.7205 4180.7717 3122.7205 4180.7717 3125.8701" layerid="1" stroke-width="0" /><circle c_etype="pad_hole" cx="4179" cy="3124.2957" r="0" layerid="1" stroke-width="0"/></g><g c_partid="part_pad" c_etype="pinpart" c_origin="4179,3129.8072" layerid="1" number="1" net="GND" plated ="Y"  id="gge276" locked="0" c_rotation="90" c_width="3.1496" c_height="3.5433" title="GND" c_shape="RECT" pasteexpansion="0.0000" solderexpansion="0.2000"><polygon  c_etype="pad_shell" points="4177.2283 3131.3819 4177.2283 3128.2323 4180.7717 3128.2323 4180.7717 3131.3819" layerid="1" stroke-width="0" /><circle c_etype="pad_hole" cx="4179" cy="3129.8067" r="0" layerid="1" stroke-width="0"/></g><g c_partid="part_pad" c_etype="pinpart" c_origin="4179,3104.2952" layerid="1" number="2" net="GND" plated ="Y"  id="gge357" locked="0" c_rotation="90" c_width="3.1496" c_height="3.5433" title="GND" c_shape="RECT" pasteexpansion="0.0000" solderexpansion="0.2000"><polygon  c_etype="pad_shell" points="4177.2283 3105.8701 4177.2283 3102.7205 4180.7717 3102.7205 4180.7717 3105.8701" layerid="1" stroke-width="0" /><circle c_etype="pad_hole" cx="4179" cy="3104.2957" r="0" layerid="1" stroke-width="0"/></g><g c_partid="part_pad" c_etype="pinpart" c_origin="4179,3109.8072" layerid="1" number="1" net="U1_14" plated ="Y"  id="gge372" locked="0" c_rotation="90" c_width="3.1496" c_height="3.5433" title="U1_14" c_shape="RECT" pasteexpansion="0.0000" solderexpansion="0.2000"><polygon  c_etype="pad_shell" points="4177.2283 3111.3819 4177.2283 3108.2323 4180.7717 3108.2323 4180.7717 3111.3819" layerid="1" stroke-width="0" /><circle c_etype="pad_hole" cx="4179" cy="3109.8067" r="0" layerid="1" stroke-width="0"/></g><g c_partid="part_pad" c_etype="pinpart" c_origin="4179,3084.2952" layerid="1" number="2" net="GND" plated ="Y"  id="gge453" locked="0" c_rotation="90" c_width="3.1496" c_height="3.5433" title="GND" c_shape="RECT" pasteexpansion="0.0000" solderexpansion="0.2000"><polygon  c_etype="pad_shell" points="4177.2283 3085.8701 4177.2283 3082.7205 4180.7717 3082.7205 4180.7717 3085.8701" layerid="1" stroke-width="0" /><circle c_etype="pad_hole" cx="4179" cy="3084.2957" r="0" layerid="1" stroke-width="0"/></g><g c_partid="part_pad" c_etype="pinpart" c_origin="4179,3089.8072" layerid="1" number="1" net="U1_13" plated ="Y"  id="gge468" locked="0" c_rotation="90" c_width="3.1496" c_height="3.5433" title="U1_13" c_shape="RECT" pasteexpansion="0.0000" solderexpansion="0.2000"><polygon  c_etype="pad_shell" points="4177.2283 3091.3819 4177.2283 3088.2323 4180.7717 3088.2323 4180.7717 3091.3819" layerid="1" stroke-width="0" /><circle c_etype="pad_hole" cx="4179" cy="3089.8067" r="0" layerid="1" stroke-width="0"/></g><g c_partid="part_pad" c_etype="pinpart" c_origin="4180,3061.3835" layerid="1" number="2" net="D1_2" plated ="Y"  id="gge555" locked="0" c_rotation="90" c_width="3.937" c_height="2.9528" title="D1_2" c_shape="RECT" pasteexpansion="0.0000" solderexpansion="0.2000"><polygon  c_etype="pad_shell" points="4178.5236 3063.3522 4178.5236 3059.4151 4181.4764 3059.4151 4181.4764 3063.3522" layerid="1" stroke-width="0" /><circle c_etype="pad_hole" cx="4180" cy="3061.3835" r="0" layerid="1" stroke-width="0"/></g><g c_partid="part_pad" c_etype="pinpart" c_origin="4180,3070.6165" layerid="1" number="1" net="+5V" plated ="Y"  id="gge570" locked="0" c_rotation="90" c_width="3.937" c_height="2.9528" title="+5V" c_shape="RECT" pasteexpansion="0.0000" solderexpansion="0.2000"><polygon  c_etype="pad_shell" points="4178.5236 3072.5847 4178.5236 3068.6476 4181.4764 3068.6476 4181.4764 3072.5847" layerid="1" stroke-width="0" /><circle c_etype="pad_hole" cx="4180" cy="3070.6163" r="0" layerid="1" stroke-width="0"/></g><g c_partid="part_pad" c_etype="pinpart" c_origin="4146.809,3100.5" layerid="1" number="1" net="" plated ="Y"  id="gge723" locked="0" c_rotation="90" c_width="2.2047" c_height="6.8701" title="" c_shape="OVAL" pasteexpansion="0.0000" solderexpansion="0.2000"><polyline  c_etype="pad_shell" points="4144.4763 3100.5 4149.1417 3100.5" layerid="1" stroke-width="2.2047" /><circle c_etype="pad_hole" cx="4146.8091" cy="3100.5" r="0" layerid="1" stroke-width="0"/></g><g c_partid="part_pad" c_etype="pinpart" c_origin="4146.809,3095.5" layerid="1" number="2" net="" plated ="Y"  id="gge738" locked="0" c_rotation="90" c_width="2.2047" c_height="6.8701" title="" c_shape="OVAL" pasteexpansion="0.0000" solderexpansion="0.2000"><polyline  c_etype="pad_shell" points="4144.4763 3095.5 4149.1417 3095.5" layerid="1" stroke-width="2.2047" /><circle c_etype="pad_hole" cx="4146.8091" cy="3095.5" r="0" layerid="1" stroke-width="0"/></g><g c_partid="part_pad" c_etype="pinpart" c_origin="4146.809,3090.5" layerid="1" number="3" net="" plated ="Y"  id="gge753" locked="0" c_rotation="90" c_width="2.2047" c_height="6.8701" title="" c_shape="OVAL" pasteexpansion="0.0000" solderexpansion="0.2000"><polyline  c_etype="pad_shell" points="4144.4763 3090.5 4149.1417 3090.5" layerid="1" stroke-width="2.2047" /><circle c_etype="pad_hole" cx="4146.8091" cy="3090.5" r="0" layerid="1" stroke-width="0"/></g><g c_partid="part_pad" c_etype="pinpart" c_origin="4146.809,3085.5" layerid="1" number="4" net="" plated ="Y"  id="gge768" locked="0" c_rotation="90" c_width="2.2047" c_height="6.8701" title="" c_shape="OVAL" pasteexpansion="0.0000" solderexpansion="0.2000"><polyline  c_etype="pad_shell" points="4144.4763 3085.5 4149.1417 3085.5" layerid="1" stroke-width="2.2047" /><circle c_etype="pad_hole" cx="4146.8091" cy="3085.5" r="0" layerid="1" stroke-width="0"/></g><g c_partid="part_pad" c_etype="pinpart" c_origin="4146.809,3080.5" layerid="1" number="5" net="USB2_2" plated ="Y"  id="gge783" locked="0" c_rotation="90" c_width="2.2047" c_height="6.8701" title="USB2_2" c_shape="OVAL" pasteexpansion="0.0000" solderexpansion="0.2000"><polyline  c_etype="pad_shell" points="4144.4763 3080.5 4149.1417 3080.5" layerid="1" stroke-width="2.2047" /><circle c_etype="pad_hole" cx="4146.8091" cy="3080.5" r="0" layerid="1" stroke-width="0"/></g><g c_partid="part_pad" c_etype="pinpart" c_origin="4146.809,3075.5" layerid="1" number="6" net="USB2_3" plated ="Y"  id="gge798" locked="0" c_rotation="90" c_width="2.2047" c_height="6.8701" title="USB2_3" c_shape="OVAL" pasteexpansion="0.0000" solderexpansion="0.2000"><polyline  c_etype="pad_shell" points="4144.4763 3075.5 4149.1417 3075.5" layerid="1" stroke-width="2.2047" /><circle c_etype="pad_hole" cx="4146.8091" cy="3075.5" r="0" layerid="1" stroke-width="0"/></g><g c_partid="part_pad" c_etype="pinpart" c_origin="4146.809,3070.5" layerid="1" number="7" net="U1_7" plated ="Y"  id="gge813" locked="0" c_rotation="90" c_width="2.2047" c_height="6.8701" title="U1_7" c_shape="OVAL" pasteexpansion="0.0000" solderexpansion="0.2000"><polyline  c_etype="pad_shell" points="4144.4763 3070.5 4149.1417 3070.5" layerid="1" stroke-width="2.2047" /><circle c_etype="pad_hole" cx="4146.8091" cy="3070.5" r="0" layerid="1" stroke-width="0"/></g><g c_partid="part_pad" c_etype="pinpart" c_origin="4146.809,3065.5" layerid="1" number="8" net="U1_8" plated ="Y"  id="gge828" locked="0" c_rotation="90" c_width="2.2047" c_height="6.8701" title="U1_8" c_shape="OVAL" pasteexpansion="0.0000" solderexpansion="0.2000"><polyline  c_etype="pad_shell" points="4144.4763 3065.5 4149.1417 3065.5" layerid="1" stroke-width="2.2047" /><circle c_etype="pad_hole" cx="4146.8091" cy="3065.5" r="0" layerid="1" stroke-width="0"/></g><g c_partid="part_pad" c_etype="pinpart" c_origin="4124.191,3100.5" layerid="1" number="16" net="GND" plated ="Y"  id="gge843" locked="0" c_rotation="90" c_width="2.2047" c_height="6.8701" title="GND" c_shape="OVAL" pasteexpansion="0.0000" solderexpansion="0.2000"><polyline  c_etype="pad_shell" points="4121.8583 3100.5 4126.5237 3100.5" layerid="1" stroke-width="2.2047" /><circle c_etype="pad_hole" cx="4124.1909" cy="3100.5" r="0" layerid="1" stroke-width="0"/></g><g c_partid="part_pad" c_etype="pinpart" c_origin="4124.191,3095.5" layerid="1" number="15" net="" plated ="Y"  id="gge858" locked="0" c_rotation="90" c_width="2.2047" c_height="6.8701" title="" c_shape="OVAL" pasteexpansion="0.0000" solderexpansion="0.2000"><polyline  c_etype="pad_shell" points="4121.8583 3095.5 4126.5237 3095.5" layerid="1" stroke-width="2.2047" /><circle c_etype="pad_hole" cx="4124.1909" cy="3095.5" r="0" layerid="1" stroke-width="0"/></g><g c_partid="part_pad" c_etype="pinpart" c_origin="4124.191,3090.5" layerid="1" number="14" net="U1_14" plated ="Y"  id="gge873" locked="0" c_rotation="90" c_width="2.2047" c_height="6.8701" title="U1_14" c_shape="OVAL" pasteexpansion="0.0000" solderexpansion="0.2000"><polyline  c_etype="pad_shell" points="4121.8583 3090.5 4126.5237 3090.5" layerid="1" stroke-width="2.2047" /><circle c_etype="pad_hole" cx="4124.1909" cy="3090.5" r="0" layerid="1" stroke-width="0"/></g><g c_partid="part_pad" c_etype="pinpart" c_origin="4124.191,3085.5" layerid="1" number="13" net="U1_13" plated ="Y"  id="gge888" locked="0" c_rotation="90" c_width="2.2047" c_height="6.8701" title="U1_13" c_shape="OVAL" pasteexpansion="0.0000" solderexpansion="0.2000"><polyline  c_etype="pad_shell" points="4121.8583 3085.5 4126.5237 3085.5" layerid="1" stroke-width="2.2047" /><circle c_etype="pad_hole" cx="4124.1909" cy="3085.5" r="0" layerid="1" stroke-width="0"/></g><g c_partid="part_pad" c_etype="pinpart" c_origin="4124.191,3080.5" layerid="1" number="12" net="GND" plated ="Y"  id="gge903" locked="0" c_rotation="90" c_width="2.2047" c_height="6.8701" title="GND" c_shape="OVAL" pasteexpansion="0.0000" solderexpansion="0.2000"><polyline  c_etype="pad_shell" points="4121.8583 3080.5 4126.5237 3080.5" layerid="1" stroke-width="2.2047" /><circle c_etype="pad_hole" cx="4124.1909" cy="3080.5" r="0" layerid="1" stroke-width="0"/></g><g c_partid="part_pad" c_etype="pinpart" c_origin="4124.191,3075.5" layerid="1" number="11" net="+5V" plated ="Y"  id="gge918" locked="0" c_rotation="90" c_width="2.2047" c_height="6.8701" title="+5V" c_shape="OVAL" pasteexpansion="0.0000" solderexpansion="0.2000"><polyline  c_etype="pad_shell" points="4121.8583 3075.5 4126.5237 3075.5" layerid="1" stroke-width="2.2047" /><circle c_etype="pad_hole" cx="4124.1909" cy="3075.5" r="0" layerid="1" stroke-width="0"/></g><g c_partid="part_pad" c_etype="pinpart" c_origin="4124.191,3070.5" layerid="1" number="10" net="U1_10" plated ="Y"  id="gge933" locked="0" c_rotation="90" c_width="2.2047" c_height="6.8701" title="U1_10" c_shape="OVAL" pasteexpansion="0.0000" solderexpansion="0.2000"><polyline  c_etype="pad_shell" points="4121.8583 3070.5 4126.5237 3070.5" layerid="1" stroke-width="2.2047" /><circle c_etype="pad_hole" cx="4124.1909" cy="3070.5" r="0" layerid="1" stroke-width="0"/></g><g c_partid="part_pad" c_etype="pinpart" c_origin="4124.191,3065.5" layerid="1" number="9" net="U1_9" plated ="Y"  id="gge948" locked="0" c_rotation="90" c_width="2.2047" c_height="6.8701" title="U1_9" c_shape="OVAL" pasteexpansion="0.0000" solderexpansion="0.2000"><polyline  c_etype="pad_shell" points="4121.8583 3065.5 4126.5237 3065.5" layerid="1" stroke-width="2.2047" /><circle c_etype="pad_hole" cx="4124.1909" cy="3065.5" r="0" layerid="1" stroke-width="0"/></g><g c_partid="part_pad" c_etype="pinpart" c_origin="4269.937,3098.3345" layerid="11" number="6" net="GND" plated ="Y"  id="gge1086" locked="0" c_rotation="90" c_width="6.2992" c_height="11.0236" title="GND" c_shape="RECT" pasteexpansion="0" solderexpansion="0.2"><polygon  c_etype="pad_shell" points="4264.4252 3101.4842 4264.4252 3095.185 4275.4488 3095.185 4275.4488 3101.4842" layerid="11" stroke-width="0" /><polyline c_etype="pad_hole" points="4273.2834 3098.3346 4266.5905 3098.3346" layerid="11" stroke-width="3.1496"></polyline></g><g c_partid="part_pad" c_etype="pinpart" c_origin="4269.937,3052.6655" layerid="11" number="5" net="GND" plated ="Y"  id="gge1101" locked="0" c_rotation="90" c_width="6.2992" c_height="11.0236" title="GND" c_shape="RECT" pasteexpansion="0" solderexpansion="0.2"><polygon  c_etype="pad_shell" points="4264.4252 3055.815 4264.4252 3049.5158 4275.4488 3049.5158 4275.4488 3055.815" layerid="11" stroke-width="0" /><polyline c_etype="pad_hole" points="4273.2834 3052.6654 4266.5905 3052.6654" layerid="11" stroke-width="3.1496"></polyline></g><g c_partid="part_pad" c_etype="pinpart" c_origin="4262.063,3061.7205" layerid="11" number="1" net="D1_2" plated ="Y"  id="gge1116" locked="0" c_rotation="90" c_width="6.2992" c_height="6.2992" title="D1_2" c_shape="RECT" pasteexpansion="0" solderexpansion="0.2"><polygon  c_etype="pad_shell" points="4258.9134 3064.8701 4258.9134 3058.5709 4265.2126 3058.5709 4265.2126 3064.8701" layerid="11" stroke-width="0" /><circle c_etype="pad_hole" cx="4262.063" cy="3061.7205" r="1.9685" layerid="11" stroke-width="0"/></g><g c_partid="part_pad" c_etype="pinpart" c_origin="4262.063,3071.5625" layerid="11" number="2" net="U1_9" plated ="Y"  id="gge1131" locked="0" c_rotation="90" c_width="6.2992" c_height="6.2992" title="U1_9" c_shape="ELLIPSE" pasteexpansion="0" solderexpansion="0.2"><ellipse c_etype="pad_shell" cx="4262.063" cy="3071.5625" rx="3.1496" ry="3.1496" layerid="11" stroke-width="0"/><circle c_etype="pad_hole" cx="4262.063" cy="3071.5625" r="1.9685" layerid="11" stroke-width="0"/></g><g c_partid="part_pad" c_etype="pinpart" c_origin="4262.063,3079.4365" layerid="11" number="3" net="U1_10" plated ="Y"  id="gge1146" locked="0" c_rotation="90" c_width="6.2992" c_height="6.2992" title="U1_10" c_shape="ELLIPSE" pasteexpansion="0" solderexpansion="0.2"><ellipse c_etype="pad_shell" cx="4262.063" cy="3079.4365" rx="3.1496" ry="3.1496" layerid="11" stroke-width="0"/><circle c_etype="pad_hole" cx="4262.063" cy="3079.4365" r="1.9685" layerid="11" stroke-width="0"/></g><g c_partid="part_pad" c_etype="pinpart" c_origin="4262.063,3089.2795" layerid="11" number="4" net="GND" plated ="Y"  id="gge1161" locked="0" c_rotation="90" c_width="6.2992" c_height="6.2992" title="GND" c_shape="ELLIPSE" pasteexpansion="0" solderexpansion="0.2"><ellipse c_etype="pad_shell" cx="4262.063" cy="3089.2795" rx="3.1496" ry="3.1496" layerid="11" stroke-width="0"/><circle c_etype="pad_hole" cx="4262.063" cy="3089.2795" r="1.9685" layerid="11" stroke-width="0"/></g><g c_partid="part_pad" c_etype="pinpart" c_origin="4052.441,3219.8345" layerid="11" number="6" net="GND" plated ="Y"  id="gge1245" locked="0" c_rotation="0" c_width="10.2362" c_height="10.2362" title="GND" c_shape="ELLIPSE" pasteexpansion="0" solderexpansion="0.2"><ellipse c_etype="pad_shell" cx="4052.441" cy="3219.8345" rx="5.1181" ry="5.1181" layerid="11" stroke-width="0"/><circle c_etype="pad_hole" cx="4052.441" cy="3219.8345" r="4.1339" layerid="11" stroke-width="0"/></g><g c_partid="part_pad" c_etype="pinpart" c_origin="4107.559,3219.8345" layerid="11" number="5" net="GND" plated ="Y"  id="gge1260" locked="0" c_rotation="0" c_width="10.2362" c_height="10.2362" title="GND" c_shape="ELLIPSE" pasteexpansion="0" solderexpansion="0.2"><ellipse c_etype="pad_shell" cx="4107.559" cy="3219.8345" rx="5.1181" ry="5.1181" layerid="11" stroke-width="0"/><circle c_etype="pad_hole" cx="4107.559" cy="3219.8345" r="4.1339" layerid="11" stroke-width="0"/></g><g c_partid="part_pad" c_etype="pinpart" c_origin="4093.779,3209.1655" layerid="11" number="4" net="GND" plated ="Y"  id="gge1275" locked="0" c_rotation="0" c_width="6" c_height="6" title="GND" c_shape="ELLIPSE" pasteexpansion="0" solderexpansion="0.2"><ellipse c_etype="pad_shell" cx="4093.779" cy="3209.1655" rx="3" ry="3" layerid="11" stroke-width="0"/><circle c_etype="pad_hole" cx="4093.779" cy="3209.1655" r="1.811" layerid="11" stroke-width="0"/></g><g c_partid="part_pad" c_etype="pinpart" c_origin="4083.937,3209.1655" layerid="11" number="3" net="USB2_3" plated ="Y"  id="gge1290" locked="0" c_rotation="0" c_width="6" c_height="6" title="USB2_3" c_shape="ELLIPSE" pasteexpansion="0" solderexpansion="0.2"><ellipse c_etype="pad_shell" cx="4083.937" cy="3209.1655" rx="3" ry="3" layerid="11" stroke-width="0"/><circle c_etype="pad_hole" cx="4083.937" cy="3209.1655" r="1.811" layerid="11" stroke-width="0"/></g><g c_partid="part_pad" c_etype="pinpart" c_origin="4076.063,3209.1655" layerid="11" number="2" net="USB2_2" plated ="Y"  id="gge1305" locked="0" c_rotation="0" c_width="6" c_height="6" title="USB2_2" c_shape="ELLIPSE" pasteexpansion="0" solderexpansion="0.2"><ellipse c_etype="pad_shell" cx="4076.063" cy="3209.1655" rx="3" ry="3" layerid="11" stroke-width="0"/><circle c_etype="pad_hole" cx="4076.063" cy="3209.1655" r="1.811" layerid="11" stroke-width="0"/></g><g c_partid="part_pad" c_etype="pinpart" c_origin="4066.22,3209.1655" layerid="11" number="1" net="+5V" plated ="Y"  id="gge1320" locked="0" c_rotation="0" c_width="6" c_height="6" title="+5V" c_shape="RECT" pasteexpansion="0" solderexpansion="0.2"><polygon  c_etype="pad_shell" points="4063.22 3206.1655 4069.22 3206.1655 4069.22 3212.1655 4063.22 3212.1655" layerid="11" stroke-width="0" /><circle c_etype="pad_hole" cx="4066.22" cy="3209.1655" r="1.811" layerid="11" stroke-width="0"/></g><g c_partid="part_pad" c_etype="pinpart" c_origin="4121.441,3219.8345" layerid="11" number="6" net="GND" plated ="Y"  id="gge1404" locked="0" c_rotation="0" c_width="10.2362" c_height="10.2362" title="GND" c_shape="ELLIPSE" pasteexpansion="0" solderexpansion="0.2"><ellipse c_etype="pad_shell" cx="4121.441" cy="3219.8345" rx="5.1181" ry="5.1181" layerid="11" stroke-width="0"/><circle c_etype="pad_hole" cx="4121.441" cy="3219.8345" r="4.1339" layerid="11" stroke-width="0"/></g><g c_partid="part_pad" c_etype="pinpart" c_origin="4176.559,3219.8345" layerid="11" number="5" net="GND" plated ="Y"  id="gge1419" locked="0" c_rotation="0" c_width="10.2362" c_height="10.2362" title="GND" c_shape="ELLIPSE" pasteexpansion="0" solderexpansion="0.2"><ellipse c_etype="pad_shell" cx="4176.559" cy="3219.8345" rx="5.1181" ry="5.1181" layerid="11" stroke-width="0"/><circle c_etype="pad_hole" cx="4176.559" cy="3219.8345" r="4.1339" layerid="11" stroke-width="0"/></g><g c_partid="part_pad" c_etype="pinpart" c_origin="4162.779,3209.1655" layerid="11" number="4" net="GND" plated ="Y"  id="gge1434" locked="0" c_rotation="0" c_width="6" c_height="6" title="GND" c_shape="ELLIPSE" pasteexpansion="0" solderexpansion="0.2"><ellipse c_etype="pad_shell" cx="4162.779" cy="3209.1655" rx="3" ry="3" layerid="11" stroke-width="0"/><circle c_etype="pad_hole" cx="4162.779" cy="3209.1655" r="1.811" layerid="11" stroke-width="0"/></g><g c_partid="part_pad" c_etype="pinpart" c_origin="4152.937,3209.1655" layerid="11" number="3" net="U1_8" plated ="Y"  id="gge1449" locked="0" c_rotation="0" c_width="6" c_height="6" title="U1_8" c_shape="ELLIPSE" pasteexpansion="0" solderexpansion="0.2"><ellipse c_etype="pad_shell" cx="4152.937" cy="3209.1655" rx="3" ry="3" layerid="11" stroke-width="0"/><circle c_etype="pad_hole" cx="4152.937" cy="3209.1655" r="1.811" layerid="11" stroke-width="0"/></g><g c_partid="part_pad" c_etype="pinpart" c_origin="4145.063,3209.1655" layerid="11" number="2" net="U1_7" plated ="Y"  id="gge1464" locked="0" c_rotation="0" c_width="6" c_height="6" title="U1_7" c_shape="ELLIPSE" pasteexpansion="0" solderexpansion="0.2"><ellipse c_etype="pad_shell" cx="4145.063" cy="3209.1655" rx="3" ry="3" layerid="11" stroke-width="0"/><circle c_etype="pad_hole" cx="4145.063" cy="3209.1655" r="1.811" layerid="11" stroke-width="0"/></g><g c_partid="part_pad" c_etype="pinpart" c_origin="4135.22,3209.1655" layerid="11" number="1" net="+5V" plated ="Y"  id="gge1479" locked="0" c_rotation="0" c_width="6" c_height="6" title="+5V" c_shape="RECT" pasteexpansion="0" solderexpansion="0.2"><polygon  c_etype="pad_shell" points="4132.22 3206.1655 4138.22 3206.1655 4138.22 3212.1655 4132.22 3212.1655" layerid="11" stroke-width="0" /><circle c_etype="pad_hole" cx="4135.22" cy="3209.1655" r="1.811" layerid="11" stroke-width="0"/></g><g c_partid="part_via" c_etype="pinpart" c_shapetype="group" net="USB2_2" c_origin="4131.2721,3084.2741" layerid="11" id="gge2166" locked="0" solderexpansion=""><circle cx="4131.2721" cy="3084.2741" r="1.2" stroke-width="0" c_etype="pad_shell"/><circle cx="4131.2721" cy="3084.2741" r="0.6"  stroke-width="0" c_etype="pad_hole"/></g><g c_partid="part_via" c_etype="pinpart" c_shapetype="group" net="USB2_3" c_origin="4137.7481,3075.6721" layerid="11" id="gge2175" locked="0" solderexpansion=""><circle cx="4137.7481" cy="3075.6721" r="1.2" stroke-width="0" c_etype="pad_shell"/><circle cx="4137.7481" cy="3075.6721" r="0.6"  stroke-width="0" c_etype="pad_hole"/></g><g c_partid="part_via" c_etype="pinpart" c_shapetype="group" net="U1_7" c_origin="4134.4521,3071.0971" layerid="11" id="gge2184" locked="0" solderexpansion=""><circle cx="4134.4521" cy="3071.0971" r="1.2" stroke-width="0" c_etype="pad_shell"/><circle cx="4134.4521" cy="3071.0971" r="0.6"  stroke-width="0" c_etype="pad_hole"/></g><g c_partid="part_via" c_etype="pinpart" c_shapetype="group" net="U1_8" c_origin="4152.9371,3065.5001" layerid="11" id="gge2193" locked="0" solderexpansion=""><circle cx="4152.9371" cy="3065.5001" r="1.2" stroke-width="0" c_etype="pad_shell"/><circle cx="4152.9371" cy="3065.5001" r="0.6"  stroke-width="0" c_etype="pad_hole"/></g><g c_partid="part_via" c_etype="pinpart" c_shapetype="group" net="+5V" c_origin="4181.8961,3121.2361" layerid="11" id="gge2331" locked="0" solderexpansion=""><circle cx="4181.8961" cy="3121.2361" r="1.2" stroke-width="0" c_etype="pad_shell"/><circle cx="4181.8961" cy="3121.2361" r="0.6"  stroke-width="0" c_etype="pad_hole"/></g><g c_partid="part_hole" c_etype="pinpart" c_shapetype="group" c_origin="4269.937,3066.6415" layerid="11" id="gge1056" locked="0" ><circle cx="4269.937" cy="3066.6415" r="1.9685"  stroke-width="1" fill-opacity="0" /></g><g c_partid="part_hole" c_etype="pinpart" c_shapetype="group" c_origin="4269.937,3084.3585" layerid="11" id="gge1068" locked="0" ><circle cx="4269.937" cy="3084.3585" r="1.9685"  stroke-width="1" fill-opacity="0" /></g><polyline points="4282 3098.5 4282 3052.5" stroke-width="1"  stroke-linecap="round" fill="none" layerid="3" net="" id="gge1020" locked="0" /><polyline points="4340.063 3051.5 4262.063 3051.5" stroke-width="1"  stroke-linecap="round" fill="none" layerid="3" net="" id="gge1023" locked="0" /><polyline points="4262.063 3099.5 4340.063 3099.5" stroke-width="1"  stroke-linecap="round" fill="none" layerid="3" net="" id="gge1026" locked="0" /><polyline points="4340.063 3099.5 4340.063 3051.5" stroke-width="1"  stroke-linecap="round" fill="none" layerid="3" net="" id="gge1029" locked="0" /><polyline points="4262.063 3099.5 4262.063 3093.3391" stroke-width="1"  stroke-linecap="round" fill="none" layerid="3" net="" id="gge1032" locked="0" /><polyline points="4262.063 3085.2199 4262.063 3083.4961" stroke-width="1"  stroke-linecap="round" fill="none" layerid="3" net="" id="gge1035" locked="0" /><polyline points="4262.063 3067.5029 4262.063 3065.78" stroke-width="1"  stroke-linecap="round" fill="none" layerid="3" net="" id="gge1038" locked="0" /><polyline points="4262.063 3057.6608 4262.063 3051.5" stroke-width="1"  stroke-linecap="round" fill="none" layerid="3" net="" id="gge1041" locked="0" /><polyline points="4312.063 3065.4995 4312.063 3055.4995 4322.063 3055.4995 4322.063 3065.4995 4312.063 3065.4995" stroke-width="1"  stroke-linecap="round" fill="none" layerid="3" net="" id="gge1044" locked="0" /><polyline points="4312.063 3095.4995 4312.063 3085.4995 4322.063 3085.4995 4322.063 3095.4995 4312.063 3095.4995" stroke-width="1"  stroke-linecap="round" fill="none" layerid="3" net="" id="gge1047" locked="0" /><polyline points="4094.5994 3232.9655 4092.2996 3252.8657 4084.9995 3252.8657 4082.7095 3232.9956 4084.0196 3232.8955 4086.5994 3250.8657 4090.2996 3250.8657 4093.3994 3232.7656 4094.5994 3232.9655" stroke-width="1"  stroke-linecap="round" fill="none" layerid="3" net="" id="gge1194" locked="0" /><polyline points="4084.3994 3236.5656 4092.5994 3236.5656" stroke-width="1"  stroke-linecap="round" fill="none" layerid="3" net="" id="gge1197" locked="0" /><polyline points="4085.6995 3243.4655 4091.3994 3243.4655" stroke-width="1"  stroke-linecap="round" fill="none" layerid="3" net="" id="gge1200" locked="0" /><polyline points="4068.0994 3243.6655 4073.7996 3243.6655" stroke-width="1"  stroke-linecap="round" fill="none" layerid="3" net="" id="gge1203" locked="0" /><polyline points="4066.7996 3236.7656 4074.9995 3236.7656" stroke-width="1"  stroke-linecap="round" fill="none" layerid="3" net="" id="gge1206" locked="0" /><polyline points="4076.9995 3233.1655 4075.7996 3232.9655 4072.6995 3251.0656 4068.9995 3251.0656 4066.4195 3233.0957 4065.1094 3233.1955 4067.3994 3253.0656 4074.6995 3253.0656 4076.9995 3233.1655" stroke-width="1"  stroke-linecap="round" fill="none" layerid="3" net="" id="gge1209" locked="0" /><polyline points="4052 3203.1655 4108 3203.1655 4108 3259.1655 4052 3259.1655 4052 3203.1655" stroke-width="1"  stroke-linecap="round" fill="none" layerid="3" net="" id="gge1212" locked="0" /><polyline points="4163.5994 3232.9655 4161.2996 3252.8657 4153.9995 3252.8657 4151.7095 3232.9956 4153.0196 3232.8955 4155.5994 3250.8657 4159.2996 3250.8657 4162.3994 3232.7656 4163.5994 3232.9655" stroke-width="1"  stroke-linecap="round" fill="none" layerid="3" net="" id="gge1353" locked="0" /><polyline points="4153.3994 3236.5656 4161.5994 3236.5656" stroke-width="1"  stroke-linecap="round" fill="none" layerid="3" net="" id="gge1356" locked="0" /><polyline points="4154.6995 3243.4655 4160.3994 3243.4655" stroke-width="1"  stroke-linecap="round" fill="none" layerid="3" net="" id="gge1359" locked="0" /><polyline points="4137.0994 3243.6655 4142.7996 3243.6655" stroke-width="1"  stroke-linecap="round" fill="none" layerid="3" net="" id="gge1362" locked="0" /><polyline points="4135.7996 3236.7656 4143.9995 3236.7656" stroke-width="1"  stroke-linecap="round" fill="none" layerid="3" net="" id="gge1365" locked="0" /><polyline points="4145.9995 3233.1655 4144.7996 3232.9655 4141.6995 3251.0656 4137.9995 3251.0656 4135.4195 3233.0957 4134.1094 3233.1955 4136.3994 3253.0656 4143.6995 3253.0656 4145.9995 3233.1655" stroke-width="1"  stroke-linecap="round" fill="none" layerid="3" net="" id="gge1368" locked="0" /><polyline points="4121 3203.1655 4177 3203.1655 4177 3259.1655 4121 3259.1655 4121 3203.1655" stroke-width="1"  stroke-linecap="round" fill="none" layerid="3" net="" id="gge1371" locked="0" /><polyline points="4177.4261 3161.5787 4180.5758 3161.5787" stroke-width="1"  stroke-linecap="round" fill="none" layerid="3" net="" id="gge30" locked="0" /><polyline points="4176.2062 3165.9478 4176.2062 3162.7983" stroke-width="1"  stroke-linecap="round" fill="none" layerid="3" net="" id="gge33" locked="0" /><polyline points="4181.7954 3165.9478 4181.7954 3162.7983" stroke-width="1"  stroke-linecap="round" fill="none" layerid="3" net="" id="gge36" locked="0" /><polyline points="4176.1833 3168.2151 4176.1833 3171.3647" stroke-width="1"  stroke-linecap="round" fill="none" layerid="3" net="" id="gge39" locked="0" /><polyline points="4177.4031 3172.5845 4180.5526 3172.5845" stroke-width="1"  stroke-linecap="round" fill="none" layerid="3" net="" id="gge42" locked="0" /><polyline points="4181.7723 3168.2151 4181.7723 3171.3647" stroke-width="1"  stroke-linecap="round" fill="none" layerid="3" net="" id="gge45" locked="0" /><polyline points="4177.4261 3141.5787 4180.5758 3141.5787" stroke-width="1"  stroke-linecap="round" fill="none" layerid="3" net="" id="gge126" locked="0" /><polyline points="4176.2062 3145.9478 4176.2062 3142.7983" stroke-width="1"  stroke-linecap="round" fill="none" layerid="3" net="" id="gge129" locked="0" /><polyline points="4181.7954 3145.9478 4181.7954 3142.7983" stroke-width="1"  stroke-linecap="round" fill="none" layerid="3" net="" id="gge132" locked="0" /><polyline points="4176.1833 3148.2151 4176.1833 3151.3647" stroke-width="1"  stroke-linecap="round" fill="none" layerid="3" net="" id="gge135" locked="0" /><polyline points="4177.4031 3152.5845 4180.5526 3152.5845" stroke-width="1"  stroke-linecap="round" fill="none" layerid="3" net="" id="gge138" locked="0" /><polyline points="4181.7723 3148.2151 4181.7723 3151.3647" stroke-width="1"  stroke-linecap="round" fill="none" layerid="3" net="" id="gge141" locked="0" /><polyline points="4177.4261 3121.5787 4180.5758 3121.5787" stroke-width="1"  stroke-linecap="round" fill="none" layerid="3" net="" id="gge222" locked="0" /><polyline points="4176.2062 3125.9478 4176.2062 3122.7983" stroke-width="1"  stroke-linecap="round" fill="none" layerid="3" net="" id="gge225" locked="0" /><polyline points="4181.7954 3125.9478 4181.7954 3122.7983" stroke-width="1"  stroke-linecap="round" fill="none" layerid="3" net="" id="gge228" locked="0" /><polyline points="4176.1833 3128.2151 4176.1833 3131.3647" stroke-width="1"  stroke-linecap="round" fill="none" layerid="3" net="" id="gge231" locked="0" /><polyline points="4177.4031 3132.5845 4180.5526 3132.5845" stroke-width="1"  stroke-linecap="round" fill="none" layerid="3" net="" id="gge234" locked="0" /><polyline points="4181.7723 3128.2151 4181.7723 3131.3647" stroke-width="1"  stroke-linecap="round" fill="none" layerid="3" net="" id="gge237" locked="0" /><polyline points="4177.4261 3101.5787 4180.5758 3101.5787" stroke-width="1"  stroke-linecap="round" fill="none" layerid="3" net="" id="gge318" locked="0" /><polyline points="4176.2062 3105.9478 4176.2062 3102.7983" stroke-width="1"  stroke-linecap="round" fill="none" layerid="3" net="" id="gge321" locked="0" /><polyline points="4181.7954 3105.9478 4181.7954 3102.7983" stroke-width="1"  stroke-linecap="round" fill="none" layerid="3" net="" id="gge324" locked="0" /><polyline points="4176.1833 3108.2151 4176.1833 3111.3647" stroke-width="1"  stroke-linecap="round" fill="none" layerid="3" net="" id="gge327" locked="0" /><polyline points="4177.4031 3112.5845 4180.5526 3112.5845" stroke-width="1"  stroke-linecap="round" fill="none" layerid="3" net="" id="gge330" locked="0" /><polyline points="4181.7723 3108.2151 4181.7723 3111.3647" stroke-width="1"  stroke-linecap="round" fill="none" layerid="3" net="" id="gge333" locked="0" /><polyline points="4177.4261 3081.5787 4180.5758 3081.5787" stroke-width="1"  stroke-linecap="round" fill="none" layerid="3" net="" id="gge414" locked="0" /><polyline points="4176.2062 3085.9478 4176.2062 3082.7983" stroke-width="1"  stroke-linecap="round" fill="none" layerid="3" net="" id="gge417" locked="0" /><polyline points="4181.7954 3085.9478 4181.7954 3082.7983" stroke-width="1"  stroke-linecap="round" fill="none" layerid="3" net="" id="gge420" locked="0" /><polyline points="4176.1833 3088.2151 4176.1833 3091.3647" stroke-width="1"  stroke-linecap="round" fill="none" layerid="3" net="" id="gge423" locked="0" /><polyline points="4177.4031 3092.5845 4180.5526 3092.5845" stroke-width="1"  stroke-linecap="round" fill="none" layerid="3" net="" id="gge426" locked="0" /><polyline points="4181.7723 3088.2151 4181.7723 3091.3647" stroke-width="1"  stroke-linecap="round" fill="none" layerid="3" net="" id="gge429" locked="0" /><polyline points="4182.8591 3062.4518 4182.0472 3062.4518" stroke-width="0.5984"  stroke-linecap="round" fill="none" layerid="3" net="" id="gge516" locked="0" /><polyline points="4177.1409 3062.4518 4177.9134 3062.4518" stroke-width="0.5984"  stroke-linecap="round" fill="none" layerid="3" net="" id="gge519" locked="0" /><polyline points="4177.1409 3069.3512 4177.1409 3062.4518" stroke-width="0.6"  stroke-linecap="round" fill="none" layerid="3" net="" id="gge522" locked="0" /><polyline points="4182.8591 3069.3512 4182.8591 3062.4518" stroke-width="0.6"  stroke-linecap="round" fill="none" layerid="3" net="" id="gge525" locked="0" /><polyline points="4177.1409 3067.7589 4182.8591 3067.7589" stroke-width="0.6"  stroke-linecap="round" fill="none" layerid="3" net="" id="gge528" locked="0" /><polyline points="4142.474 3102.985 4128.526 3102.985 4128.526 3063.015 4142.474 3063.015 4142.474 3102.985" stroke-width="0.6"  stroke-linecap="round" fill="none" layerid="3" net="" id="gge708" locked="0" /><g c_partid="part_pcbtext" c_etype="" c_origin="4250.437,3075.8345" c_rotation="90" c_mirror="" id="gge969" locked="0" layerid="3" c_shapetype="group" display="none"><path c_fontsize="4.5" c_fontfamily="" c_text="U-G-04DD-W-01" d="M 4245.897 3075.8345 L 4248.967 3075.8345 L 4249.577 3075.6345 L 4249.987 3075.2245 L 4250.187 3074.6045 L 4250.187 3074.1945 L 4249.987 3073.5845 L 4249.577 3073.1745 L 4248.967 3072.9745 L 4245.897 3072.9745 M 4248.347 3071.6245 L 4248.347 3067.9345 M 4246.917 3063.5245 L 4246.507 3063.7245 L 4246.097 3064.1345 L 4245.897 3064.5445 L 4245.897 3065.3645 L 4246.097 3065.7745 L 4246.507 3066.1845 L 4246.917 3066.3845 L 4247.537 3066.5845 L 4248.557 3066.5845 L 4249.167 3066.3845 L 4249.577 3066.1845 L 4249.987 3065.7745 L 4250.187 3065.3645 L 4250.187 3064.5445 L 4249.987 3064.1345 L 4249.577 3063.7245 L 4249.167 3063.5245 L 4248.557 3063.5245 M 4248.557 3064.5445 L 4248.557 3063.5245 M 4248.347 3062.1745 L 4248.347 3058.4845 M 4245.897 3055.9145 L 4246.097 3056.5245 L 4246.717 3056.9345 L 4247.737 3057.1345 L 4248.347 3057.1345 L 4249.377 3056.9345 L 4249.987 3056.5245 L 4250.187 3055.9145 L 4250.187 3055.5045 L 4249.987 3054.8845 L 4249.377 3054.4845 L 4248.347 3054.2745 L 4247.737 3054.2745 L 4246.717 3054.4845 L 4246.097 3054.8845 L 4245.897 3055.5045 L 4245.897 3055.9145 M 4245.897 3050.8845 L 4248.757 3052.9245 L 4248.757 3049.8545 M 4245.897 3050.8845 L 4250.187 3050.8845 M 4245.897 3048.5045 L 4250.187 3048.5045 M 4245.897 3048.5045 L 4245.897 3047.0745 L 4246.097 3046.4645 L 4246.507 3046.0545 L 4246.917 3045.8445 L 4247.537 3045.6445 L 4248.557 3045.6445 L 4249.167 3045.8445 L 4249.577 3046.0545 L 4249.987 3046.4645 L 4250.187 3047.0745 L 4250.187 3048.5045 M 4245.897 3044.2945 L 4250.187 3044.2945 M 4245.897 3044.2945 L 4245.897 3042.8645 L 4246.097 3042.2445 L 4246.507 3041.8345 L 4246.917 3041.6345 L 4247.537 3041.4345 L 4248.557 3041.4345 L 4249.167 3041.6345 L 4249.577 3041.8345 L 4249.987 3042.2445 L 4250.187 3042.8645 L 4250.187 3044.2945 M 4248.347 3040.0845 L 4248.347 3036.3945 M 4245.897 3035.0445 L 4250.187 3034.0245 M 4245.897 3033.0045 L 4250.187 3034.0245 M 4245.897 3033.0045 L 4250.187 3031.9845 M 4245.897 3030.9545 L 4250.187 3031.9845 M 4248.347 3029.6045 L 4248.347 3025.9245 M 4245.897 3023.3445 L 4246.097 3023.9645 L 4246.717 3024.3745 L 4247.737 3024.5745 L 4248.347 3024.5745 L 4249.377 3024.3745 L 4249.987 3023.9645 L 4250.187 3023.3445 L 4250.187 3022.9345 L 4249.987 3022.3245 L 4249.377 3021.9145 L 4248.347 3021.7145 L 4247.737 3021.7145 L 4246.717 3021.9145 L 4246.097 3022.3245 L 4245.897 3022.9345 L 4245.897 3023.3445 M 4246.717 3020.3645 L 4246.507 3019.9545 L 4245.897 3019.3345 L 4250.187 3019.3345" fill="none"  stroke-width="0.6" c_note="note_name" /></g><g c_partid="part_pcbtext" c_etype="" c_origin="4257.437,3075.8345" c_rotation="90" c_mirror="" id="gge975" locked="0" layerid="3" c_shapetype="group" ><path c_fontsize="4.5" c_fontfamily="" c_text="USB1" d="M 4252.897 3075.8345 L 4255.967 3075.8345 L 4256.577 3075.6345 L 4256.987 3075.2245 L 4257.187 3074.6045 L 4257.187 3074.1945 L 4256.987 3073.5845 L 4256.577 3073.1745 L 4255.967 3072.9745 L 4252.897 3072.9745 M 4253.507 3068.7545 L 4253.097 3069.1645 L 4252.897 3069.7845 L 4252.897 3070.5945 L 4253.097 3071.2145 L 4253.507 3071.6245 L 4253.917 3071.6245 L 4254.327 3071.4145 L 4254.537 3071.2145 L 4254.737 3070.8045 L 4255.147 3069.5745 L 4255.347 3069.1645 L 4255.557 3068.9645 L 4255.967 3068.7545 L 4256.577 3068.7545 L 4256.987 3069.1645 L 4257.187 3069.7845 L 4257.187 3070.5945 L 4256.987 3071.2145 L 4256.577 3071.6245 M 4252.897 3067.4045 L 4257.187 3067.4045 M 4252.897 3067.4045 L 4252.897 3065.5645 L 4253.097 3064.9545 L 4253.307 3064.7445 L 4253.717 3064.5445 L 4254.127 3064.5445 L 4254.537 3064.7445 L 4254.737 3064.9545 L 4254.937 3065.5645 M 4254.937 3067.4045 L 4254.937 3065.5645 L 4255.147 3064.9545 L 4255.347 3064.7445 L 4255.757 3064.5445 L 4256.377 3064.5445 L 4256.787 3064.7445 L 4256.987 3064.9545 L 4257.187 3065.5645 L 4257.187 3067.4045 M 4253.717 3063.1945 L 4253.507 3062.7845 L 4252.897 3062.1745 L 4257.187 3062.1745" fill="none"  stroke-width="0.6" c_note="note_pre" /></g><g c_partid="part_pcbtext" c_etype="" c_origin="4079.441,3193.8345" c_rotation="0" c_mirror="" id="gge1182" locked="0" layerid="3" c_shapetype="group" display="none"><path c_fontsize="4.5" c_fontfamily="" c_text="USB-AF-90-14.4X13.6-H7.0-DIP" d="M 4079.441 3189.2945 L 4079.441 3192.3645 L 4079.641 3192.9745 L 4080.051 3193.3845 L 4080.671 3193.5845 L 4081.081 3193.5845 L 4081.691 3193.3845 L 4082.101 3192.9745 L 4082.301 3192.3645 L 4082.301 3189.2945 M 4086.521 3189.9045 L 4086.111 3189.4945 L 4085.491 3189.2945 L 4084.681 3189.2945 L 4084.061 3189.4945 L 4083.651 3189.9045 L 4083.651 3190.3145 L 4083.861 3190.7245 L 4084.061 3190.9345 L 4084.471 3191.1345 L 4085.701 3191.5445 L 4086.111 3191.7445 L 4086.311 3191.9545 L 4086.521 3192.3645 L 4086.521 3192.9745 L 4086.111 3193.3845 L 4085.491 3193.5845 L 4084.681 3193.5845 L 4084.061 3193.3845 L 4083.651 3192.9745 M 4087.871 3189.2945 L 4087.871 3193.5845 M 4087.871 3189.2945 L 4089.711 3189.2945 L 4090.321 3189.4945 L 4090.531 3189.7045 L 4090.731 3190.1145 L 4090.731 3190.5245 L 4090.531 3190.9345 L 4090.321 3191.1345 L 4089.711 3191.3345 M 4087.871 3191.3345 L 4089.711 3191.3345 L 4090.321 3191.5445 L 4090.531 3191.7445 L 4090.731 3192.1545 L 4090.731 3192.7745 L 4090.531 3193.1845 L 4090.321 3193.3845 L 4089.711 3193.5845 L 4087.871 3193.5845 M 4092.081 3191.7445 L 4095.761 3191.7445 M 4098.751 3189.2945 L 4097.111 3193.5845 M 4098.751 3189.2945 L 4100.391 3193.5845 M 4097.731 3192.1545 L 4099.771 3192.1545 M 4101.741 3189.2945 L 4101.741 3193.5845 M 4101.741 3189.2945 L 4104.391 3189.2945 M 4101.741 3191.3345 L 4103.371 3191.3345 M 4105.741 3191.7445 L 4109.431 3191.7445 M 4113.441 3190.7245 L 4113.231 3191.3345 L 4112.821 3191.7445 L 4112.211 3191.9545 L 4112.001 3191.9545 L 4111.391 3191.7445 L 4110.981 3191.3345 L 4110.781 3190.7245 L 4110.781 3190.5245 L 4110.981 3189.9045 L 4111.391 3189.4945 L 4112.001 3189.2945 L 4112.211 3189.2945 L 4112.821 3189.4945 L 4113.231 3189.9045 L 4113.441 3190.7245 L 4113.441 3191.7445 L 4113.231 3192.7745 L 4112.821 3193.3845 L 4112.211 3193.5845 L 4111.801 3193.5845 L 4111.191 3193.3845 L 4110.981 3192.9745 M 4116.011 3189.2945 L 4115.401 3189.4945 L 4114.991 3190.1145 L 4114.791 3191.1345 L 4114.791 3191.7445 L 4114.991 3192.7745 L 4115.401 3193.3845 L 4116.011 3193.5845 L 4116.421 3193.5845 L 4117.041 3193.3845 L 4117.441 3192.7745 L 4117.651 3191.7445 L 4117.651 3191.1345 L 4117.441 3190.1145 L 4117.041 3189.4945 L 4116.421 3189.2945 L 4116.011 3189.2945 M 4119.001 3191.7445 L 4122.681 3191.7445 M 4124.031 3190.1145 L 4124.441 3189.9045 L 4125.051 3189.2945 L 4125.051 3193.5845 M 4128.451 3189.2945 L 4126.401 3192.1545 L 4129.471 3192.1545 M 4128.451 3189.2945 L 4128.451 3193.5845 M 4131.031 3192.5645 L 4130.821 3192.7745 L 4131.031 3192.9745 L 4131.231 3192.7745 L 4131.031 3192.5645 M 4134.631 3189.2945 L 4132.581 3192.1545 L 4135.651 3192.1545 M 4134.631 3189.2945 L 4134.631 3193.5845 M 4137.001 3189.2945 L 4139.861 3193.5845 M 4139.861 3189.2945 L 4137.001 3193.5845 M 4141.211 3190.1145 L 4141.621 3189.9045 L 4142.241 3189.2945 L 4142.241 3193.5845 M 4143.991 3189.2945 L 4146.241 3189.2945 L 4145.021 3190.9345 L 4145.631 3190.9345 L 4146.041 3191.1345 L 4146.241 3191.3345 L 4146.451 3191.9545 L 4146.451 3192.3645 L 4146.241 3192.9745 L 4145.841 3193.3845 L 4145.221 3193.5845 L 4144.611 3193.5845 L 4143.991 3193.3845 L 4143.791 3193.1845 L 4143.591 3192.7745 M 4148.001 3192.5645 L 4147.801 3192.7745 L 4148.001 3192.9745 L 4148.211 3192.7745 L 4148.001 3192.5645 M 4152.011 3189.9045 L 4151.811 3189.4945 L 4151.191 3189.2945 L 4150.791 3189.2945 L 4150.171 3189.4945 L 4149.761 3190.1145 L 4149.561 3191.1345 L 4149.561 3192.1545 L 4149.761 3192.9745 L 4150.171 3193.3845 L 4150.791 3193.5845 L 4150.991 3193.5845 L 4151.601 3193.3845 L 4152.011 3192.9745 L 4152.221 3192.3645 L 4152.221 3192.1545 L 4152.011 3191.5445 L 4151.601 3191.1345 L 4150.991 3190.9345 L 4150.791 3190.9345 L 4150.171 3191.1345 L 4149.761 3191.5445 L 4149.561 3192.1545 M 4153.571 3191.7445 L 4157.251 3191.7445 M 4158.601 3189.2945 L 4158.601 3193.5845 M 4161.461 3189.2945 L 4161.461 3193.5845 M 4158.601 3191.3345 L 4161.461 3191.3345 M 4165.681 3189.2945 L 4163.631 3193.5845 M 4162.811 3189.2945 L 4165.681 3189.2945 M 4167.231 3192.5645 L 4167.031 3192.7745 L 4167.231 3192.9745 L 4167.441 3192.7745 L 4167.231 3192.5645 M 4170.011 3189.2945 L 4169.401 3189.4945 L 4168.991 3190.1145 L 4168.791 3191.1345 L 4168.791 3191.7445 L 4168.991 3192.7745 L 4169.401 3193.3845 L 4170.011 3193.5845 L 4170.421 3193.5845 L 4171.041 3193.3845 L 4171.441 3192.7745 L 4171.651 3191.7445 L 4171.651 3191.1345 L 4171.441 3190.1145 L 4171.041 3189.4945 L 4170.421 3189.2945 L 4170.011 3189.2945 M 4173.001 3191.7445 L 4176.681 3191.7445 M 4178.031 3189.2945 L 4178.031 3193.5845 M 4178.031 3189.2945 L 4179.461 3189.2945 L 4180.081 3189.4945 L 4180.491 3189.9045 L 4180.691 3190.3145 L 4180.891 3190.9345 L 4180.891 3191.9545 L 4180.691 3192.5645 L 4180.491 3192.9745 L 4180.081 3193.3845 L 4179.461 3193.5845 L 4178.031 3193.5845 M 4182.241 3189.2945 L 4182.241 3193.5845 M 4183.591 3189.2945 L 4183.591 3193.5845 M 4183.591 3189.2945 L 4185.441 3189.2945 L 4186.051 3189.4945 L 4186.251 3189.7045 L 4186.461 3190.1145 L 4186.461 3190.7245 L 4186.251 3191.1345 L 4186.051 3191.3345 L 4185.441 3191.5445 L 4183.591 3191.5445" fill="none"  stroke-width="0.6" c_note="note_name" /></g><g c_partid="part_pcbtext" c_etype="" c_origin="4079.441,3200.8345" c_rotation="0" c_mirror="" id="gge1188" locked="0" layerid="3" c_shapetype="group" ><path c_fontsize="4.5" c_fontfamily="" c_text="USB2" d="M 4079.441 3196.2945 L 4079.441 3199.3645 L 4079.641 3199.9745 L 4080.051 3200.3845 L 4080.671 3200.5845 L 4081.081 3200.5845 L 4081.691 3200.3845 L 4082.101 3199.9745 L 4082.301 3199.3645 L 4082.301 3196.2945 M 4086.521 3196.9045 L 4086.111 3196.4945 L 4085.491 3196.2945 L 4084.681 3196.2945 L 4084.061 3196.4945 L 4083.651 3196.9045 L 4083.651 3197.3145 L 4083.861 3197.7245 L 4084.061 3197.9345 L 4084.471 3198.1345 L 4085.701 3198.5445 L 4086.111 3198.7445 L 4086.311 3198.9545 L 4086.521 3199.3645 L 4086.521 3199.9745 L 4086.111 3200.3845 L 4085.491 3200.5845 L 4084.681 3200.5845 L 4084.061 3200.3845 L 4083.651 3199.9745 M 4087.871 3196.2945 L 4087.871 3200.5845 M 4087.871 3196.2945 L 4089.711 3196.2945 L 4090.321 3196.4945 L 4090.531 3196.7045 L 4090.731 3197.1145 L 4090.731 3197.5245 L 4090.531 3197.9345 L 4090.321 3198.1345 L 4089.711 3198.3345 M 4087.871 3198.3345 L 4089.711 3198.3345 L 4090.321 3198.5445 L 4090.531 3198.7445 L 4090.731 3199.1545 L 4090.731 3199.7745 L 4090.531 3200.1845 L 4090.321 3200.3845 L 4089.711 3200.5845 L 4087.871 3200.5845 M 4092.291 3197.3145 L 4092.291 3197.1145 L 4092.491 3196.7045 L 4092.691 3196.4945 L 4093.101 3196.2945 L 4093.921 3196.2945 L 4094.331 3196.4945 L 4094.541 3196.7045 L 4094.741 3197.1145 L 4094.741 3197.5245 L 4094.541 3197.9345 L 4094.131 3198.5445 L 4092.081 3200.5845 L 4094.941 3200.5845" fill="none"  stroke-width="0.6" c_note="note_pre" /></g><g c_partid="part_pcbtext" c_etype="" c_origin="4148.441,3193.8345" c_rotation="0" c_mirror="" id="gge1341" locked="0" layerid="3" c_shapetype="group" display="none"><path c_fontsize="4.5" c_fontfamily="" c_text="USB-AF-90-14.4X13.6-H7.0-DIP" d="M 4148.441 3189.2945 L 4148.441 3192.3645 L 4148.641 3192.9745 L 4149.051 3193.3845 L 4149.671 3193.5845 L 4150.081 3193.5845 L 4150.691 3193.3845 L 4151.101 3192.9745 L 4151.301 3192.3645 L 4151.301 3189.2945 M 4155.521 3189.9045 L 4155.111 3189.4945 L 4154.491 3189.2945 L 4153.681 3189.2945 L 4153.061 3189.4945 L 4152.651 3189.9045 L 4152.651 3190.3145 L 4152.861 3190.7245 L 4153.061 3190.9345 L 4153.471 3191.1345 L 4154.701 3191.5445 L 4155.111 3191.7445 L 4155.311 3191.9545 L 4155.521 3192.3645 L 4155.521 3192.9745 L 4155.111 3193.3845 L 4154.491 3193.5845 L 4153.681 3193.5845 L 4153.061 3193.3845 L 4152.651 3192.9745 M 4156.871 3189.2945 L 4156.871 3193.5845 M 4156.871 3189.2945 L 4158.711 3189.2945 L 4159.321 3189.4945 L 4159.531 3189.7045 L 4159.731 3190.1145 L 4159.731 3190.5245 L 4159.531 3190.9345 L 4159.321 3191.1345 L 4158.711 3191.3345 M 4156.871 3191.3345 L 4158.711 3191.3345 L 4159.321 3191.5445 L 4159.531 3191.7445 L 4159.731 3192.1545 L 4159.731 3192.7745 L 4159.531 3193.1845 L 4159.321 3193.3845 L 4158.711 3193.5845 L 4156.871 3193.5845 M 4161.081 3191.7445 L 4164.761 3191.7445 M 4167.751 3189.2945 L 4166.111 3193.5845 M 4167.751 3189.2945 L 4169.391 3193.5845 M 4166.731 3192.1545 L 4168.771 3192.1545 M 4170.741 3189.2945 L 4170.741 3193.5845 M 4170.741 3189.2945 L 4173.391 3189.2945 M 4170.741 3191.3345 L 4172.371 3191.3345 M 4174.741 3191.7445 L 4178.431 3191.7445 M 4182.441 3190.7245 L 4182.231 3191.3345 L 4181.821 3191.7445 L 4181.211 3191.9545 L 4181.001 3191.9545 L 4180.391 3191.7445 L 4179.981 3191.3345 L 4179.781 3190.7245 L 4179.781 3190.5245 L 4179.981 3189.9045 L 4180.391 3189.4945 L 4181.001 3189.2945 L 4181.211 3189.2945 L 4181.821 3189.4945 L 4182.231 3189.9045 L 4182.441 3190.7245 L 4182.441 3191.7445 L 4182.231 3192.7745 L 4181.821 3193.3845 L 4181.211 3193.5845 L 4180.801 3193.5845 L 4180.191 3193.3845 L 4179.981 3192.9745 M 4185.011 3189.2945 L 4184.401 3189.4945 L 4183.991 3190.1145 L 4183.791 3191.1345 L 4183.791 3191.7445 L 4183.991 3192.7745 L 4184.401 3193.3845 L 4185.011 3193.5845 L 4185.421 3193.5845 L 4186.041 3193.3845 L 4186.441 3192.7745 L 4186.651 3191.7445 L 4186.651 3191.1345 L 4186.441 3190.1145 L 4186.041 3189.4945 L 4185.421 3189.2945 L 4185.011 3189.2945 M 4188.001 3191.7445 L 4191.681 3191.7445 M 4193.031 3190.1145 L 4193.441 3189.9045 L 4194.051 3189.2945 L 4194.051 3193.5845 M 4197.451 3189.2945 L 4195.401 3192.1545 L 4198.471 3192.1545 M 4197.451 3189.2945 L 4197.451 3193.5845 M 4200.031 3192.5645 L 4199.821 3192.7745 L 4200.031 3192.9745 L 4200.231 3192.7745 L 4200.031 3192.5645 M 4203.631 3189.2945 L 4201.581 3192.1545 L 4204.651 3192.1545 M 4203.631 3189.2945 L 4203.631 3193.5845 M 4206.001 3189.2945 L 4208.861 3193.5845 M 4208.861 3189.2945 L 4206.001 3193.5845 M 4210.211 3190.1145 L 4210.621 3189.9045 L 4211.241 3189.2945 L 4211.241 3193.5845 M 4212.991 3189.2945 L 4215.241 3189.2945 L 4214.021 3190.9345 L 4214.631 3190.9345 L 4215.041 3191.1345 L 4215.241 3191.3345 L 4215.451 3191.9545 L 4215.451 3192.3645 L 4215.241 3192.9745 L 4214.841 3193.3845 L 4214.221 3193.5845 L 4213.611 3193.5845 L 4212.991 3193.3845 L 4212.791 3193.1845 L 4212.591 3192.7745 M 4217.001 3192.5645 L 4216.801 3192.7745 L 4217.001 3192.9745 L 4217.211 3192.7745 L 4217.001 3192.5645 M 4221.011 3189.9045 L 4220.811 3189.4945 L 4220.191 3189.2945 L 4219.791 3189.2945 L 4219.171 3189.4945 L 4218.761 3190.1145 L 4218.561 3191.1345 L 4218.561 3192.1545 L 4218.761 3192.9745 L 4219.171 3193.3845 L 4219.791 3193.5845 L 4219.991 3193.5845 L 4220.601 3193.3845 L 4221.011 3192.9745 L 4221.221 3192.3645 L 4221.221 3192.1545 L 4221.011 3191.5445 L 4220.601 3191.1345 L 4219.991 3190.9345 L 4219.791 3190.9345 L 4219.171 3191.1345 L 4218.761 3191.5445 L 4218.561 3192.1545 M 4222.571 3191.7445 L 4226.251 3191.7445 M 4227.601 3189.2945 L 4227.601 3193.5845 M 4230.461 3189.2945 L 4230.461 3193.5845 M 4227.601 3191.3345 L 4230.461 3191.3345 M 4234.681 3189.2945 L 4232.631 3193.5845 M 4231.811 3189.2945 L 4234.681 3189.2945 M 4236.231 3192.5645 L 4236.031 3192.7745 L 4236.231 3192.9745 L 4236.441 3192.7745 L 4236.231 3192.5645 M 4239.011 3189.2945 L 4238.401 3189.4945 L 4237.991 3190.1145 L 4237.791 3191.1345 L 4237.791 3191.7445 L 4237.991 3192.7745 L 4238.401 3193.3845 L 4239.011 3193.5845 L 4239.421 3193.5845 L 4240.041 3193.3845 L 4240.441 3192.7745 L 4240.651 3191.7445 L 4240.651 3191.1345 L 4240.441 3190.1145 L 4240.041 3189.4945 L 4239.421 3189.2945 L 4239.011 3189.2945 M 4242.001 3191.7445 L 4245.681 3191.7445 M 4247.031 3189.2945 L 4247.031 3193.5845 M 4247.031 3189.2945 L 4248.461 3189.2945 L 4249.081 3189.4945 L 4249.491 3189.9045 L 4249.691 3190.3145 L 4249.891 3190.9345 L 4249.891 3191.9545 L 4249.691 3192.5645 L 4249.491 3192.9745 L 4249.081 3193.3845 L 4248.461 3193.5845 L 4247.031 3193.5845 M 4251.241 3189.2945 L 4251.241 3193.5845 M 4252.591 3189.2945 L 4252.591 3193.5845 M 4252.591 3189.2945 L 4254.441 3189.2945 L 4255.051 3189.4945 L 4255.251 3189.7045 L 4255.461 3190.1145 L 4255.461 3190.7245 L 4255.251 3191.1345 L 4255.051 3191.3345 L 4254.441 3191.5445 L 4252.591 3191.5445" fill="none"  stroke-width="0.6" c_note="note_name" /></g><g c_partid="part_pcbtext" c_etype="" c_origin="4148.441,3200.8345" c_rotation="0" c_mirror="" id="gge1347" locked="0" layerid="3" c_shapetype="group" ><path c_fontsize="4.5" c_fontfamily="" c_text="USB3" d="M 4148.441 3196.2945 L 4148.441 3199.3645 L 4148.641 3199.9745 L 4149.051 3200.3845 L 4149.671 3200.5845 L 4150.081 3200.5845 L 4150.691 3200.3845 L 4151.101 3199.9745 L 4151.301 3199.3645 L 4151.301 3196.2945 M 4155.521 3196.9045 L 4155.111 3196.4945 L 4154.491 3196.2945 L 4153.681 3196.2945 L 4153.061 3196.4945 L 4152.651 3196.9045 L 4152.651 3197.3145 L 4152.861 3197.7245 L 4153.061 3197.9345 L 4153.471 3198.1345 L 4154.701 3198.5445 L 4155.111 3198.7445 L 4155.311 3198.9545 L 4155.521 3199.3645 L 4155.521 3199.9745 L 4155.111 3200.3845 L 4154.491 3200.5845 L 4153.681 3200.5845 L 4153.061 3200.3845 L 4152.651 3199.9745 M 4156.871 3196.2945 L 4156.871 3200.5845 M 4156.871 3196.2945 L 4158.711 3196.2945 L 4159.321 3196.4945 L 4159.531 3196.7045 L 4159.731 3197.1145 L 4159.731 3197.5245 L 4159.531 3197.9345 L 4159.321 3198.1345 L 4158.711 3198.3345 M 4156.871 3198.3345 L 4158.711 3198.3345 L 4159.321 3198.5445 L 4159.531 3198.7445 L 4159.731 3199.1545 L 4159.731 3199.7745 L 4159.531 3200.1845 L 4159.321 3200.3845 L 4158.711 3200.5845 L 4156.871 3200.5845 M 4161.491 3196.2945 L 4163.741 3196.2945 L 4162.511 3197.9345 L 4163.131 3197.9345 L 4163.541 3198.1345 L 4163.741 3198.3345 L 4163.941 3198.9545 L 4163.941 3199.3645 L 4163.741 3199.9745 L 4163.331 3200.3845 L 4162.721 3200.5845 L 4162.101 3200.5845 L 4161.491 3200.3845 L 4161.291 3200.1845 L 4161.081 3199.7745" fill="none"  stroke-width="0.6" c_note="note_pre" /></g><g c_partid="part_pcbtext" c_etype="" c_origin="4168,3168.0512" c_rotation="90" c_mirror="" id="gge9" locked="0" layerid="3" c_shapetype="group" display="none"><path c_fontsize="4.5" c_fontfamily="" c_text="10uF" d="M 4164.28 3168.0512 L 4164.07 3167.6412 L 4163.46 3167.0312 L 4167.75 3167.0312 M 4163.46 3164.4512 L 4163.66 3165.0612 L 4164.28 3165.4712 L 4165.3 3165.6812 L 4165.91 3165.6812 L 4166.94 3165.4712 L 4167.55 3165.0612 L 4167.75 3164.4512 L 4167.75 3164.0412 L 4167.55 3163.4312 L 4166.94 3163.0212 L 4165.91 3162.8112 L 4165.3 3162.8112 L 4164.28 3163.0212 L 4163.66 3163.4312 L 4163.46 3164.0412 L 4163.46 3164.4512 M 4164.89 3161.4612 L 4166.94 3161.4612 L 4167.55 3161.2612 L 4167.75 3160.8512 L 4167.75 3160.2412 L 4167.55 3159.8312 L 4166.94 3159.2112 M 4164.89 3159.2112 L 4167.75 3159.2112 M 4163.46 3157.8612 L 4167.75 3157.8612 M 4163.46 3157.8612 L 4163.46 3155.2012 M 4165.5 3157.8612 L 4165.5 3156.2312" fill="none"  stroke-width="0.6" c_note="note_name" /></g><g c_partid="part_pcbtext" c_etype="" c_origin="4175,3168.0512" c_rotation="90" c_mirror="" id="gge15" locked="0" layerid="3" c_shapetype="group" ><path c_fontsize="4.5" c_fontfamily="" c_text="C1" d="M 4171.48 3164.9812 L 4171.07 3165.1912 L 4170.66 3165.6012 L 4170.46 3166.0012 L 4170.46 3166.8212 L 4170.66 3167.2312 L 4171.07 3167.6412 L 4171.48 3167.8512 L 4172.1 3168.0512 L 4173.12 3168.0512 L 4173.73 3167.8512 L 4174.14 3167.6412 L 4174.55 3167.2312 L 4174.75 3166.8212 L 4174.75 3166.0012 L 4174.55 3165.6012 L 4174.14 3165.1912 L 4173.73 3164.9812 M 4171.28 3163.6312 L 4171.07 3163.2212 L 4170.46 3162.6112 L 4174.75 3162.6112" fill="none"  stroke-width="0.6" c_note="note_pre" /></g><g c_partid="part_pcbtext" c_etype="" c_origin="4168,3148.0512" c_rotation="90" c_mirror="" id="gge105" locked="0" layerid="3" c_shapetype="group" display="none"><path c_fontsize="4.5" c_fontfamily="" c_text="10uF" d="M 4164.28 3148.0512 L 4164.07 3147.6412 L 4163.46 3147.0312 L 4167.75 3147.0312 M 4163.46 3144.4512 L 4163.66 3145.0612 L 4164.28 3145.4712 L 4165.3 3145.6812 L 4165.91 3145.6812 L 4166.94 3145.4712 L 4167.55 3145.0612 L 4167.75 3144.4512 L 4167.75 3144.0412 L 4167.55 3143.4312 L 4166.94 3143.0212 L 4165.91 3142.8112 L 4165.3 3142.8112 L 4164.28 3143.0212 L 4163.66 3143.4312 L 4163.46 3144.0412 L 4163.46 3144.4512 M 4164.89 3141.4612 L 4166.94 3141.4612 L 4167.55 3141.2612 L 4167.75 3140.8512 L 4167.75 3140.2412 L 4167.55 3139.8312 L 4166.94 3139.2112 M 4164.89 3139.2112 L 4167.75 3139.2112 M 4163.46 3137.8612 L 4167.75 3137.8612 M 4163.46 3137.8612 L 4163.46 3135.2012 M 4165.5 3137.8612 L 4165.5 3136.2312" fill="none"  stroke-width="0.6" c_note="note_name" /></g><g c_partid="part_pcbtext" c_etype="" c_origin="4175,3148.0512" c_rotation="90" c_mirror="" id="gge111" locked="0" layerid="3" c_shapetype="group" ><path c_fontsize="4.5" c_fontfamily="" c_text="C2" d="M 4171.48 3144.9812 L 4171.07 3145.1912 L 4170.66 3145.6012 L 4170.46 3146.0012 L 4170.46 3146.8212 L 4170.66 3147.2312 L 4171.07 3147.6412 L 4171.48 3147.8512 L 4172.1 3148.0512 L 4173.12 3148.0512 L 4173.73 3147.8512 L 4174.14 3147.6412 L 4174.55 3147.2312 L 4174.75 3146.8212 L 4174.75 3146.0012 L 4174.55 3145.6012 L 4174.14 3145.1912 L 4173.73 3144.9812 M 4171.48 3143.4312 L 4171.28 3143.4312 L 4170.87 3143.2212 L 4170.66 3143.0212 L 4170.46 3142.6112 L 4170.46 3141.7912 L 4170.66 3141.3812 L 4170.87 3141.1812 L 4171.28 3140.9712 L 4171.69 3140.9712 L 4172.1 3141.1812 L 4172.71 3141.5912 L 4174.75 3143.6312 L 4174.75 3140.7712" fill="none"  stroke-width="0.6" c_note="note_pre" /></g><g c_partid="part_pcbtext" c_etype="" c_origin="4168,3128.0512" c_rotation="90" c_mirror="" id="gge201" locked="0" layerid="3" c_shapetype="group" display="none"><path c_fontsize="4.5" c_fontfamily="" c_text="10uF" d="M 4164.28 3128.0512 L 4164.07 3127.6412 L 4163.46 3127.0312 L 4167.75 3127.0312 M 4163.46 3124.4512 L 4163.66 3125.0612 L 4164.28 3125.4712 L 4165.3 3125.6812 L 4165.91 3125.6812 L 4166.94 3125.4712 L 4167.55 3125.0612 L 4167.75 3124.4512 L 4167.75 3124.0412 L 4167.55 3123.4312 L 4166.94 3123.0212 L 4165.91 3122.8112 L 4165.3 3122.8112 L 4164.28 3123.0212 L 4163.66 3123.4312 L 4163.46 3124.0412 L 4163.46 3124.4512 M 4164.89 3121.4612 L 4166.94 3121.4612 L 4167.55 3121.2612 L 4167.75 3120.8512 L 4167.75 3120.2412 L 4167.55 3119.8312 L 4166.94 3119.2112 M 4164.89 3119.2112 L 4167.75 3119.2112 M 4163.46 3117.8612 L 4167.75 3117.8612 M 4163.46 3117.8612 L 4163.46 3115.2012 M 4165.5 3117.8612 L 4165.5 3116.2312" fill="none"  stroke-width="0.6" c_note="note_name" /></g><g c_partid="part_pcbtext" c_etype="" c_origin="4175,3128.0512" c_rotation="90" c_mirror="" id="gge207" locked="0" layerid="3" c_shapetype="group" ><path c_fontsize="4.5" c_fontfamily="" c_text="C3" d="M 4171.48 3124.9812 L 4171.07 3125.1912 L 4170.66 3125.6012 L 4170.46 3126.0012 L 4170.46 3126.8212 L 4170.66 3127.2312 L 4171.07 3127.6412 L 4171.48 3127.8512 L 4172.1 3128.0512 L 4173.12 3128.0512 L 4173.73 3127.8512 L 4174.14 3127.6412 L 4174.55 3127.2312 L 4174.75 3126.8212 L 4174.75 3126.0012 L 4174.55 3125.6012 L 4174.14 3125.1912 L 4173.73 3124.9812 M 4170.46 3123.2212 L 4170.46 3120.9712 L 4172.1 3122.2012 L 4172.1 3121.5912 L 4172.3 3121.1812 L 4172.5 3120.9712 L 4173.12 3120.7712 L 4173.53 3120.7712 L 4174.14 3120.9712 L 4174.55 3121.3812 L 4174.75 3122.0012 L 4174.75 3122.6112 L 4174.55 3123.2212 L 4174.35 3123.4312 L 4173.94 3123.6312" fill="none"  stroke-width="0.6" c_note="note_pre" /></g><g c_partid="part_pcbtext" c_etype="" c_origin="4168,3108.0512" c_rotation="90" c_mirror="" id="gge297" locked="0" layerid="3" c_shapetype="group" display="none"><path c_fontsize="4.5" c_fontfamily="" c_text="10uF" d="M 4164.28 3108.0512 L 4164.07 3107.6412 L 4163.46 3107.0312 L 4167.75 3107.0312 M 4163.46 3104.4512 L 4163.66 3105.0612 L 4164.28 3105.4712 L 4165.3 3105.6812 L 4165.91 3105.6812 L 4166.94 3105.4712 L 4167.55 3105.0612 L 4167.75 3104.4512 L 4167.75 3104.0412 L 4167.55 3103.4312 L 4166.94 3103.0212 L 4165.91 3102.8112 L 4165.3 3102.8112 L 4164.28 3103.0212 L 4163.66 3103.4312 L 4163.46 3104.0412 L 4163.46 3104.4512 M 4164.89 3101.4612 L 4166.94 3101.4612 L 4167.55 3101.2612 L 4167.75 3100.8512 L 4167.75 3100.2412 L 4167.55 3099.8312 L 4166.94 3099.2112 M 4164.89 3099.2112 L 4167.75 3099.2112 M 4163.46 3097.8612 L 4167.75 3097.8612 M 4163.46 3097.8612 L 4163.46 3095.2012 M 4165.5 3097.8612 L 4165.5 3096.2312" fill="none"  stroke-width="0.6" c_note="note_name" /></g><g c_partid="part_pcbtext" c_etype="" c_origin="4175,3108.0512" c_rotation="90" c_mirror="" id="gge303" locked="0" layerid="3" c_shapetype="group" ><path c_fontsize="4.5" c_fontfamily="" c_text="C4" d="M 4171.48 3104.9812 L 4171.07 3105.1912 L 4170.66 3105.6012 L 4170.46 3106.0012 L 4170.46 3106.8212 L 4170.66 3107.2312 L 4171.07 3107.6412 L 4171.48 3107.8512 L 4172.1 3108.0512 L 4173.12 3108.0512 L 4173.73 3107.8512 L 4174.14 3107.6412 L 4174.55 3107.2312 L 4174.75 3106.8212 L 4174.75 3106.0012 L 4174.55 3105.6012 L 4174.14 3105.1912 L 4173.73 3104.9812 M 4170.46 3101.5912 L 4173.32 3103.6312 L 4173.32 3100.5612 M 4170.46 3101.5912 L 4174.75 3101.5912" fill="none"  stroke-width="0.6" c_note="note_pre" /></g><g c_partid="part_pcbtext" c_etype="" c_origin="4168,3088.0512" c_rotation="90" c_mirror="" id="gge393" locked="0" layerid="3" c_shapetype="group" display="none"><path c_fontsize="4.5" c_fontfamily="" c_text="10uF" d="M 4164.28 3088.0512 L 4164.07 3087.6412 L 4163.46 3087.0312 L 4167.75 3087.0312 M 4163.46 3084.4512 L 4163.66 3085.0612 L 4164.28 3085.4712 L 4165.3 3085.6812 L 4165.91 3085.6812 L 4166.94 3085.4712 L 4167.55 3085.0612 L 4167.75 3084.4512 L 4167.75 3084.0412 L 4167.55 3083.4312 L 4166.94 3083.0212 L 4165.91 3082.8112 L 4165.3 3082.8112 L 4164.28 3083.0212 L 4163.66 3083.4312 L 4163.46 3084.0412 L 4163.46 3084.4512 M 4164.89 3081.4612 L 4166.94 3081.4612 L 4167.55 3081.2612 L 4167.75 3080.8512 L 4167.75 3080.2412 L 4167.55 3079.8312 L 4166.94 3079.2112 M 4164.89 3079.2112 L 4167.75 3079.2112 M 4163.46 3077.8612 L 4167.75 3077.8612 M 4163.46 3077.8612 L 4163.46 3075.2012 M 4165.5 3077.8612 L 4165.5 3076.2312" fill="none"  stroke-width="0.6" c_note="note_name" /></g><g c_partid="part_pcbtext" c_etype="" c_origin="4175,3088.0512" c_rotation="90" c_mirror="" id="gge399" locked="0" layerid="3" c_shapetype="group" ><path c_fontsize="4.5" c_fontfamily="" c_text="C5" d="M 4171.48 3084.9812 L 4171.07 3085.1912 L 4170.66 3085.6012 L 4170.46 3086.0012 L 4170.46 3086.8212 L 4170.66 3087.2312 L 4171.07 3087.6412 L 4171.48 3087.8512 L 4172.1 3088.0512 L 4173.12 3088.0512 L 4173.73 3087.8512 L 4174.14 3087.6412 L 4174.55 3087.2312 L 4174.75 3086.8212 L 4174.75 3086.0012 L 4174.55 3085.6012 L 4174.14 3085.1912 L 4173.73 3084.9812 M 4170.46 3081.1812 L 4170.46 3083.2212 L 4172.3 3083.4312 L 4172.1 3083.2212 L 4171.89 3082.6112 L 4171.89 3082.0012 L 4172.1 3081.3812 L 4172.5 3080.9712 L 4173.12 3080.7712 L 4173.53 3080.7712 L 4174.14 3080.9712 L 4174.55 3081.3812 L 4174.75 3082.0012 L 4174.75 3082.6112 L 4174.55 3083.2212 L 4174.35 3083.4312 L 4173.94 3083.6312" fill="none"  stroke-width="0.6" c_note="note_pre" /></g><g c_partid="part_pcbtext" c_etype="" c_origin="4168,3066.9015" c_rotation="90" c_mirror="" id="gge489" locked="0" layerid="3" c_shapetype="group" display="none"><path c_fontsize="4.5" c_fontfamily="" c_text="NSR0320MW2T1G" d="M 4163.46 3066.9015 L 4167.75 3066.9015 M 4163.46 3066.9015 L 4167.75 3064.0415 M 4163.46 3064.0415 L 4167.75 3064.0415 M 4164.07 3059.8215 L 4163.66 3060.2315 L 4163.46 3060.8515 L 4163.46 3061.6615 L 4163.66 3062.2815 L 4164.07 3062.6915 L 4164.48 3062.6915 L 4164.89 3062.4815 L 4165.1 3062.2815 L 4165.3 3061.8715 L 4165.71 3060.6415 L 4165.91 3060.2315 L 4166.12 3060.0315 L 4166.53 3059.8215 L 4167.14 3059.8215 L 4167.55 3060.2315 L 4167.75 3060.8515 L 4167.75 3061.6615 L 4167.55 3062.2815 L 4167.14 3062.6915 M 4163.46 3058.4715 L 4167.75 3058.4715 M 4163.46 3058.4715 L 4163.46 3056.6315 L 4163.66 3056.0215 L 4163.87 3055.8115 L 4164.28 3055.6115 L 4164.69 3055.6115 L 4165.1 3055.8115 L 4165.3 3056.0215 L 4165.5 3056.6315 L 4165.5 3058.4715 M 4165.5 3057.0415 L 4167.75 3055.6115 M 4163.46 3053.0315 L 4163.66 3053.6515 L 4164.28 3054.0515 L 4165.3 3054.2615 L 4165.91 3054.2615 L 4166.94 3054.0515 L 4167.55 3053.6515 L 4167.75 3053.0315 L 4167.75 3052.6215 L 4167.55 3052.0115 L 4166.94 3051.6015 L 4165.91 3051.4015 L 4165.3 3051.4015 L 4164.28 3051.6015 L 4163.66 3052.0115 L 4163.46 3052.6215 L 4163.46 3053.0315 M 4163.46 3049.6415 L 4163.46 3047.3915 L 4165.1 3048.6115 L 4165.1 3048.0015 L 4165.3 3047.5915 L 4165.5 3047.3915 L 4166.12 3047.1815 L 4166.53 3047.1815 L 4167.14 3047.3915 L 4167.55 3047.8015 L 4167.75 3048.4115 L 4167.75 3049.0215 L 4167.55 3049.6415 L 4167.35 3049.8415 L 4166.94 3050.0515 M 4164.48 3045.6315 L 4164.28 3045.6315 L 4163.87 3045.4215 L 4163.66 3045.2215 L 4163.46 3044.8115 L 4163.46 3043.9915 L 4163.66 3043.5815 L 4163.87 3043.3815 L 4164.28 3043.1715 L 4164.69 3043.1715 L 4165.1 3043.3815 L 4165.71 3043.7915 L 4167.75 3045.8315 L 4167.75 3042.9715 M 4163.46 3040.3915 L 4163.66 3041.0015 L 4164.28 3041.4115 L 4165.3 3041.6215 L 4165.91 3041.6215 L 4166.94 3041.4115 L 4167.55 3041.0015 L 4167.75 3040.3915 L 4167.75 3039.9815 L 4167.55 3039.3715 L 4166.94 3038.9615 L 4165.91 3038.7515 L 4165.3 3038.7515 L 4164.28 3038.9615 L 4163.66 3039.3715 L 4163.46 3039.9815 L 4163.46 3040.3915 M 4163.46 3037.4015 L 4167.75 3037.4015 M 4163.46 3037.4015 L 4167.75 3035.7715 M 4163.46 3034.1315 L 4167.75 3035.7715 M 4163.46 3034.1315 L 4167.75 3034.1315 M 4163.46 3032.7815 L 4167.75 3031.7615 M 4163.46 3030.7415 L 4167.75 3031.7615 M 4163.46 3030.7415 L 4167.75 3029.7115 M 4163.46 3028.6915 L 4167.75 3029.7115 M 4164.48 3027.1415 L 4164.28 3027.1415 L 4163.87 3026.9315 L 4163.66 3026.7315 L 4163.46 3026.3215 L 4163.46 3025.5015 L 4163.66 3025.0915 L 4163.87 3024.8915 L 4164.28 3024.6815 L 4164.69 3024.6815 L 4165.1 3024.8915 L 4165.71 3025.3015 L 4167.75 3027.3415 L 4167.75 3024.4815 M 4163.46 3021.7015 L 4167.75 3021.7015 M 4163.46 3023.1315 L 4163.46 3020.2615 M 4164.28 3018.9115 L 4164.07 3018.5015 L 4163.46 3017.8915 L 4167.75 3017.8915 M 4164.48 3013.4715 L 4164.07 3013.6815 L 4163.66 3014.0915 L 4163.46 3014.5015 L 4163.46 3015.3115 L 4163.66 3015.7215 L 4164.07 3016.1315 L 4164.48 3016.3415 L 4165.1 3016.5415 L 4166.12 3016.5415 L 4166.73 3016.3415 L 4167.14 3016.1315 L 4167.55 3015.7215 L 4167.75 3015.3115 L 4167.75 3014.5015 L 4167.55 3014.0915 L 4167.14 3013.6815 L 4166.73 3013.4715 L 4166.12 3013.4715 M 4166.12 3014.5015 L 4166.12 3013.4715" fill="none"  stroke-width="0.6" c_note="note_name" /></g><g c_partid="part_pcbtext" c_etype="" c_origin="4175,3066.9015" c_rotation="90" c_mirror="" id="gge495" locked="0" layerid="3" c_shapetype="group" ><path c_fontsize="4.5" c_fontfamily="" c_text="D1" d="M 4170.46 3066.9015 L 4174.75 3066.9015 M 4170.46 3066.9015 L 4170.46 3065.4715 L 4170.66 3064.8515 L 4171.07 3064.4515 L 4171.48 3064.2415 L 4172.1 3064.0415 L 4173.12 3064.0415 L 4173.73 3064.2415 L 4174.14 3064.4515 L 4174.55 3064.8515 L 4174.75 3065.4715 L 4174.75 3066.9015 M 4171.28 3062.6915 L 4171.07 3062.2815 L 4170.46 3061.6615 L 4174.75 3061.6615" fill="none"  stroke-width="0.6" c_note="note_pre" /></g><g c_partid="part_pcbtext" c_etype="" c_origin="4112.5,3084" c_rotation="90" c_mirror="" id="gge591" locked="0" layerid="3" c_shapetype="group" display="none"><path c_fontsize="4.5" c_fontfamily="" c_text="SL2.1A" d="M 4108.57 3081.14 L 4108.16 3081.55 L 4107.96 3082.16 L 4107.96 3082.98 L 4108.16 3083.59 L 4108.57 3084 L 4108.98 3084 L 4109.39 3083.8 L 4109.6 3083.59 L 4109.8 3083.18 L 4110.21 3081.95 L 4110.41 3081.55 L 4110.62 3081.34 L 4111.03 3081.14 L 4111.64 3081.14 L 4112.05 3081.55 L 4112.25 3082.16 L 4112.25 3082.98 L 4112.05 3083.59 L 4111.64 3084 M 4107.96 3079.79 L 4112.25 3079.79 M 4112.25 3079.79 L 4112.25 3077.33 M 4108.98 3075.78 L 4108.78 3075.78 L 4108.37 3075.57 L 4108.16 3075.37 L 4107.96 3074.96 L 4107.96 3074.14 L 4108.16 3073.73 L 4108.37 3073.53 L 4108.78 3073.32 L 4109.19 3073.32 L 4109.6 3073.53 L 4110.21 3073.94 L 4112.25 3075.98 L 4112.25 3073.12 M 4111.23 3071.56 L 4111.44 3071.77 L 4111.64 3071.56 L 4111.44 3071.36 L 4111.23 3071.56 M 4108.78 3070.01 L 4108.57 3069.6 L 4107.96 3068.99 L 4112.25 3068.99 M 4107.96 3066 L 4112.25 3067.64 M 4107.96 3066 L 4112.25 3064.36 M 4110.82 3067.02 L 4110.82 3064.98" fill="none"  stroke-width="0.6" c_note="note_name" /></g><g c_partid="part_pcbtext" c_etype="" c_origin="4119.5,3084" c_rotation="90" c_mirror="" id="gge597" locked="0" layerid="3" c_shapetype="group" ><path c_fontsize="4.5" c_fontfamily="" c_text="U1" d="M 4114.96 3084 L 4118.03 3084 L 4118.64 3083.8 L 4119.05 3083.39 L 4119.25 3082.77 L 4119.25 3082.36 L 4119.05 3081.75 L 4118.64 3081.34 L 4118.03 3081.14 L 4114.96 3081.14 M 4115.78 3079.79 L 4115.57 3079.38 L 4114.96 3078.76 L 4119.25 3078.76" fill="none"  stroke-width="0.6" c_note="note_pre" /></g><path d="M 4177.4031 3172.5847 A 1.2198 1.2198 0 0 1 4176.1833 3171.3649" locked="0"  fill="none" stroke-width="1" c_helper_type="arc2" net="" layerid="3" id="gge48" /><path d="M 4181.7725 3171.3649 A 1.2198 1.2198 0 0 1 4180.5526 3172.5847" locked="0"  fill="none" stroke-width="1" c_helper_type="arc2" net="" layerid="3" id="gge51" /><path d="M 4176.2062 3162.7985 A 1.2198 1.2198 0 0 1 4177.4261 3161.5787" locked="0"  fill="none" stroke-width="1" c_helper_type="arc2" net="" layerid="3" id="gge54" /><path d="M 4180.5756 3161.5787 A 1.2198 1.2198 0 0 1 4181.7954 3162.7985" locked="0"  fill="none" stroke-width="1" c_helper_type="arc2" net="" layerid="3" id="gge57" /><path d="M 4177.4031 3152.5847 A 1.2198 1.2198 0 0 1 4176.1833 3151.3649" locked="0"  fill="none" stroke-width="1" c_helper_type="arc2" net="" layerid="3" id="gge144" /><path d="M 4181.7725 3151.3649 A 1.2198 1.2198 0 0 1 4180.5526 3152.5847" locked="0"  fill="none" stroke-width="1" c_helper_type="arc2" net="" layerid="3" id="gge147" /><path d="M 4176.2062 3142.7985 A 1.2198 1.2198 0 0 1 4177.4261 3141.5787" locked="0"  fill="none" stroke-width="1" c_helper_type="arc2" net="" layerid="3" id="gge150" /><path d="M 4180.5756 3141.5787 A 1.2198 1.2198 0 0 1 4181.7954 3142.7985" locked="0"  fill="none" stroke-width="1" c_helper_type="arc2" net="" layerid="3" id="gge153" /><path d="M 4177.4031 3132.5847 A 1.2198 1.2198 0 0 1 4176.1833 3131.3649" locked="0"  fill="none" stroke-width="1" c_helper_type="arc2" net="" layerid="3" id="gge240" /><path d="M 4181.7725 3131.3649 A 1.2198 1.2198 0 0 1 4180.5526 3132.5847" locked="0"  fill="none" stroke-width="1" c_helper_type="arc2" net="" layerid="3" id="gge243" /><path d="M 4176.2062 3122.7985 A 1.2198 1.2198 0 0 1 4177.4261 3121.5787" locked="0"  fill="none" stroke-width="1" c_helper_type="arc2" net="" layerid="3" id="gge246" /><path d="M 4180.5756 3121.5787 A 1.2198 1.2198 0 0 1 4181.7954 3122.7985" locked="0"  fill="none" stroke-width="1" c_helper_type="arc2" net="" layerid="3" id="gge249" /><path d="M 4177.4031 3112.5847 A 1.2198 1.2198 0 0 1 4176.1833 3111.3649" locked="0"  fill="none" stroke-width="1" c_helper_type="arc2" net="" layerid="3" id="gge336" /><path d="M 4181.7725 3111.3649 A 1.2198 1.2198 0 0 1 4180.5526 3112.5847" locked="0"  fill="none" stroke-width="1" c_helper_type="arc2" net="" layerid="3" id="gge339" /><path d="M 4176.2062 3102.7985 A 1.2198 1.2198 0 0 1 4177.4261 3101.5787" locked="0"  fill="none" stroke-width="1" c_helper_type="arc2" net="" layerid="3" id="gge342" /><path d="M 4180.5756 3101.5787 A 1.2198 1.2198 0 0 1 4181.7954 3102.7985" locked="0"  fill="none" stroke-width="1" c_helper_type="arc2" net="" layerid="3" id="gge345" /><path d="M 4177.4031 3092.5847 A 1.2198 1.2198 0 0 1 4176.1833 3091.3649" locked="0"  fill="none" stroke-width="1" c_helper_type="arc2" net="" layerid="3" id="gge432" /><path d="M 4181.7725 3091.3649 A 1.2198 1.2198 0 0 1 4180.5526 3092.5847" locked="0"  fill="none" stroke-width="1" c_helper_type="arc2" net="" layerid="3" id="gge435" /><path d="M 4176.2062 3082.7985 A 1.2198 1.2198 0 0 1 4177.4261 3081.5787" locked="0"  fill="none" stroke-width="1" c_helper_type="arc2" net="" layerid="3" id="gge438" /><path d="M 4180.5756 3081.5787 A 1.2198 1.2198 0 0 1 4181.7954 3082.7985" locked="0"  fill="none" stroke-width="1" c_helper_type="arc2" net="" layerid="3" id="gge441" /><circle cx="4139.512" cy="3100.5" r="0.591" stroke-width="1.1811" fill="none" layerid="3" id="gge711" locked="0"  /><circle cx="4146.809" cy="3103.383" r="0.591" stroke-width="1.1811" fill="none" layerid="3" id="gge714" locked="0"  /><path d="M 4176.8409 3069.0511 L 4178.2283 3069.0511 L 4178.2283 3070.2511 L 4176.8409 3070.2511 Z" stroke-width="0"   net="" type="solid" layerid="3" id="gge531" locked="0" c_teardrop="" c_targetpad="" c_targetwire="" /><path d="M 4183.1591 3069.0511 L 4181.7717 3069.0511 L 4181.7717 3070.2511 L 4183.1591 3070.2511 Z" stroke-width="0"   net="" type="solid" layerid="3" id="gge534" locked="0" c_teardrop="" c_targetpad="" c_targetwire="" /><polyline points="4047.559 3047.599 4291.653 3047.599 4291.653 3252.323 4047.559 3252.323 4047.559 3047.599" stroke-width="1"  stroke-linecap="round" fill="none" layerid="10" net="" id="gge1587" locked="0" /><polyline points="4282 3100.5 4282 3050.5" stroke-width="1"  stroke-linecap="round" fill="none" layerid="10" net="" id="gge984" locked="0" /></svg>